<?xml version="1.0" encoding="UTF-8"?>
<svg width="95px" height="32px" viewBox="0 0 95 32" version="1.1" xmlns="http://www.w3.org/2000/svg" xmlns:xlink="http://www.w3.org/1999/xlink">
    <!-- Generator: Sketch 51.2 (57519) - http://www.bohemiancoding.com/sketch -->
    <title>Group</title>
    <desc>Created with Sketch.</desc>
    <defs></defs>
    <g id="RDC18" stroke="none" stroke-width="1" fill="none" fill-rule="evenodd">
        <g id="#1-Home-v.4.1" transform="translate(-755.000000, -653.000000)" fill="#00DBF7">
            <g id="Header">
                <g id="skill+mail" transform="translate(575.000000, 639.000000)">
                    <g id="32_@mail_w-copy" transform="translate(180.000000, 14.000000)">
                        <g id="Clipped">
                            <g id="Group">
                                <rect id="Rectangle-path" x="91.063" y="2.96" width="3.033" height="20.593"></rect>
                                <path d="M87.785,23.553 L84.752,23.553 L84.752,8.96 L87.785,8.96 L87.785,23.553 Z M86.269,2.449 C87.399,2.449 88.316,3.366 88.316,4.496 C88.316,5.626 87.399,6.544 86.269,6.544 C85.139,6.544 84.221,5.626 84.221,4.496 C84.221,3.366 85.139,2.449 86.269,2.449 Z" id="Shape"></path>
                                <path d="M81.475,23.553 L78.493,23.553 L78.493,21.957 C77.425,23.167 75.543,23.927 73.773,23.927 C69.539,23.927 66.102,20.49 66.102,16.256 C66.102,12.023 69.539,8.585 73.773,8.585 C75.543,8.585 77.326,9.252 78.493,10.431 L78.493,8.96 L81.475,8.96 L81.475,23.553 Z M73.87,11.651 C76.48,11.651 78.534,13.519 78.534,16.256 C78.534,18.994 76.48,20.878 73.87,20.878 C71.259,20.878 69.275,18.867 69.275,16.256 C69.275,13.646 71.259,11.651 73.87,11.651 Z" id="Shape"></path>
                                <path d="M43.841,23.553 L40.86,23.553 L40.86,8.96 L43.841,8.96 L43.841,9.979 C44.503,9.357 45.744,8.588 47.466,8.585 C49.581,8.585 51.158,9.475 52.239,10.907 C53.421,9.49 55.369,8.585 57.355,8.585 C61.08,8.585 63.619,11.101 63.619,15.021 L63.619,23.553 L60.638,23.553 L60.638,15.021 C60.638,13.116 59.088,11.567 57.184,11.567 C55.279,11.567 53.73,13.116 53.73,15.021 L53.73,23.553 L50.749,23.553 L50.749,15.021 C50.749,13.116 49.199,11.567 47.295,11.567 C45.39,11.567 43.841,13.116 43.841,15.021 L43.841,23.553 Z" id="Shape"></path>
                                <path d="M20.813,16 C20.813,18.654 18.654,20.813 16,20.813 C13.346,20.813 11.187,18.654 11.187,16 C11.187,13.346 13.346,11.187 16,11.187 C18.654,11.187 20.813,13.346 20.813,16 M16,0 C7.178,0 0,7.178 0,16 C0,24.822 7.178,32 16,32 C19.232,32 22.349,31.038 25.013,29.217 L25.059,29.185 L22.903,26.679 L22.867,26.703 C20.816,28.022 18.441,28.72 16,28.72 C8.986,28.72 3.28,23.014 3.28,16 C3.28,8.986 8.986,3.28 16,3.28 C23.014,3.28 28.72,8.986 28.72,16 C28.72,16.909 28.619,17.829 28.42,18.734 C28.018,20.385 26.862,20.891 25.994,20.824 C25.121,20.753 24.1,20.131 24.093,18.609 L24.093,17.449 L24.093,16 C24.093,11.537 20.463,7.907 16,7.907 C11.537,7.907 7.907,11.537 7.907,16 C7.907,20.463 11.537,24.093 16,24.093 C18.168,24.093 20.201,23.245 21.734,21.704 C22.625,23.091 24.078,23.961 25.731,24.093 C25.873,24.105 26.018,24.111 26.162,24.111 C27.325,24.111 28.479,23.722 29.409,23.015 C30.368,22.287 31.084,21.234 31.48,19.969 C31.543,19.765 31.659,19.297 31.66,19.294 L31.663,19.277 C31.896,18.262 32,17.25 32,16 C32,7.178 24.822,-3.55271368e-15 16,-3.55271368e-15" id="Shape" fill-rule="nonzero"></path>
                            </g>
                        </g>
                    </g>
                </g>
            </g>
        </g>
    </g>
</svg>