<?xml version="1.0" encoding="UTF-8"?>
<svg width="73px" height="52px" viewBox="0 0 73 52" version="1.1" xmlns="http://www.w3.org/2000/svg" xmlns:xlink="http://www.w3.org/1999/xlink">
    <!-- Generator: Sketch 52.2 (67145) - http://www.bohemiancoding.com/sketch -->
    <title>Logo</title>
    <desc>Created with Sketch.</desc>
    <g id="RDC18" stroke="none" stroke-width="1" fill="none" fill-rule="evenodd">
        <g id="#1-Home-v.4.1" transform="translate(-245.000000, -4956.000000)" fill="#FFFFFF">
            <g id="Organizators" transform="translate(-19.000000, 4601.000000)">
                <g id="Logo" transform="translate(264.000000, 355.000000)">
                    <path d="M4.25104925,46.3015656 L8.22767077,46.3015656 L8.22767077,51.4374867 C7.96268064,51.5234667 7.69503619,51.6011402 7.42547472,51.6712358 C7.15576578,51.7411856 6.8760294,51.8002058 6.58567572,51.8475676 C6.2954695,51.8949295 5.99154926,51.9320904 5.67391502,51.9591959 C5.35598584,51.9865929 5.01903401,52 4.66246966,52 C3.91277025,52 3.24889403,51.8904119 2.67084099,51.6712358 C2.09249302,51.4524968 1.60571928,51.1267929 1.21037229,50.6955812 C0.814877833,50.2643696 0.514349237,49.7312936 0.308786497,49.0964988 C0.103076295,48.4619955 0,47.7289795 0,46.897888 C0,46.1210076 0.114430908,45.4185946 0.343145262,44.7905034 C0.571564691,44.1627036 0.908516527,43.6286074 1.35414823,43.1882149 C1.79977994,42.7476766 2.3486354,42.4087114 2.99997731,42.171902 C3.65117176,41.9348012 4.39733206,41.8160322 5.2381633,41.8160322 C5.77330475,41.8160322 6.2966492,41.872575 6.80849157,41.9853691 C7.32018648,42.0984547 7.78882234,42.2450579 8.21410422,42.4257616 L7.50761133,44.1061608 C7.19690782,43.952854 6.84594705,43.8240298 6.45546632,43.7201251 C6.06439574,43.6162204 5.6543025,43.564341 5.22474421,43.564341 C4.75861521,43.564341 4.33908437,43.6446376 3.96629914,43.8046478 C3.59395631,43.9650953 3.27528982,44.1919951 3.0098573,44.4857844 C2.74486717,44.7792822 2.54166383,45.1339862 2.39965743,45.5494591 C2.25809342,45.9650777 2.18716396,46.4280582 2.18716396,46.9385463 C2.18716396,47.4264464 2.2365639,47.8723766 2.33462647,48.2767741 C2.43298396,48.6811716 2.58708228,49.0300465 2.79751129,49.3233986 C3.00779283,49.6171879 3.278534,49.8451078 3.61002972,50.0077412 C3.94123052,50.1703745 4.33790467,50.2515455 4.79931487,50.2515455 C5.10131809,50.2515455 5.35598584,50.2382842 5.56405545,50.2110329 C5.77183012,50.1842188 5.96751287,50.1523042 6.15036639,50.1163092 L6.15036639,48.0498744 L4.25104925,48.0498744 L4.25104925,46.3015656 Z M13.0800721,45.6173687 C12.7097938,45.6173687 12.4024819,45.7459016 12.1578416,46.0035501 C11.9136437,46.261053 11.7729645,46.6653047 11.7362463,47.2163054 L14.4034007,47.2163054 C14.3986819,46.9859082 14.3690419,46.7734355 14.3143334,46.5793247 C14.2593298,46.3849225 14.1770458,46.2167514 14.0674811,46.0746658 C13.957769,45.9322887 13.8207763,45.8205147 13.6562082,45.739198 C13.49164,45.6578813 13.2996438,45.6173687 13.0800721,45.6173687 Z M13.3475691,52 C12.7988611,52 12.293802,51.9208692 11.8323918,51.7627535 C11.3706867,51.6047834 10.9728329,51.3665168 10.6391252,51.0479536 C10.3054175,50.7295361 10.0461785,50.327616 9.86126046,49.8420475 C9.67604755,49.3563333 9.58329363,48.7862421 9.58329363,48.131191 C9.58329363,47.466959 9.66808458,46.8866668 9.83722407,46.3895858 C10.0060686,45.8929419 10.2428934,45.4783434 10.5469611,45.1463732 C10.8505864,44.8141114 11.2164409,44.5646237 11.6439348,44.3979099 C12.0709862,44.2306132 12.5452256,44.1468191 13.0663581,44.1468191 C13.5739241,44.1468191 14.0320901,44.2224524 14.4410037,44.3737189 C14.8500647,44.5254226 15.1973389,44.7478048 15.4832687,45.0415941 C15.769051,45.3348005 15.9883278,45.6950422 16.1413939,46.1220277 C16.2944599,46.5490131 16.370993,47.0379334 16.370993,47.5889341 L16.370993,48.5918399 L11.6949568,48.5918399 C11.7043944,48.8808201 11.75114,49.1416747 11.835636,49.3744037 C11.920427,49.6069869 12.0391343,49.8034294 12.1922004,49.9638768 C12.3452665,50.1240328 12.5306268,50.2473194 12.7476916,50.3332994 C12.9647565,50.4188422 13.2126409,50.4619779 13.49164,50.4619779 C13.7244833,50.4619779 13.9452347,50.449591 14.1530094,50.4245256 C14.3612264,50.3997517 14.5632501,50.3625909 14.7599651,50.3127516 C14.9563851,50.2630581 15.1505933,50.2011233 15.3425894,50.1265102 C15.5347331,50.051897 15.7311532,49.9650426 15.9324395,49.8656556 L15.9324395,51.4648837 C15.7497334,51.5594617 15.5655528,51.6397583 15.3806348,51.7051906 C15.1952744,51.7704771 15.000034,51.8259998 14.7943238,51.8713214 C14.5887611,51.9164974 14.3669775,51.9489949 14.128973,51.9695427 C13.8915583,51.9896533 13.6308446,52 13.3475691,52 Z M20.7711268,45.6173687 C20.4009959,45.6173687 20.0933891,45.7459016 19.8490438,46.0035501 C19.6044035,46.261053 19.4638717,46.6653047 19.4274484,47.2163054 L22.0941605,47.2163054 C22.0898841,46.9859082 22.0602441,46.7734355 22.0050931,46.5793247 C21.9503845,46.3849225 21.8681005,46.2167514 21.7583883,46.0746658 C21.6485288,45.9322887 21.5115361,45.8205147 21.3469679,45.739198 C21.1823998,45.6578813 20.9904036,45.6173687 20.7711268,45.6173687 Z M21.0383289,52 C20.4900633,52 19.9850042,51.9208692 19.5231516,51.7627535 C19.0614465,51.6047834 18.664035,51.3665168 18.3303274,51.0479536 C17.9966197,50.7295361 17.7373806,50.327616 17.5520202,49.8420475 C17.3668073,49.3563333 17.2744958,48.7862421 17.2744958,48.131191 C17.2744958,47.466959 17.3588443,46.8866668 17.5281313,46.3895858 C17.6972708,45.8929419 17.9336532,45.4783434 18.2377209,45.1463732 C18.5417886,44.8141114 18.9073482,44.5646237 19.3346945,44.3979099 C19.7621883,44.2306132 20.2364278,44.1468191 20.7572654,44.1468191 C21.2646839,44.1468191 21.7228499,44.2224524 22.1320583,44.3737189 C22.5412668,44.5254226 22.888541,44.7478048 23.1743234,45.0415941 C23.4598108,45.3348005 23.6793825,45.6950422 23.832596,46.1220277 C23.9856621,46.5490131 24.0621951,47.0379334 24.0621951,47.5889341 L24.0621951,48.5918399 L19.3861589,48.5918399 C19.3951542,48.8808201 19.4420472,49.1416747 19.5268382,49.3744037 C19.6111867,49.6069869 19.7298941,49.8034294 19.8829601,49.9638768 C20.0364686,50.1240328 20.2213866,50.2473194 20.4384514,50.3332994 C20.6556637,50.4188422 20.9035482,50.4619779 21.1823998,50.4619779 C21.4156855,50.4619779 21.6359945,50.449591 21.8442115,50.4245256 C22.0519862,50.3997517 22.2544522,50.3625909 22.4507248,50.3127516 C22.6474398,50.2630581 22.8417954,50.2011233 23.0337916,50.1265102 C23.2254929,50.051897 23.4222079,49.9650426 23.6233467,49.8656556 L23.6233467,51.4648837 C23.4404932,51.5594617 23.2566075,51.6397583 23.0713945,51.7051906 C22.8861816,51.7704771 22.6907938,51.8259998 22.4850836,51.8713214 C22.2795209,51.9164974 22.0577372,51.9489949 21.8201751,51.9695427 C21.5823181,51.9896533 21.3220468,52 21.0383289,52 Z M27.3718437,47.7447182 L28.139681,46.5928775 L30.0114227,44.2891962 L32.3699381,44.2891962 L29.6000023,47.575527 L32.5485152,51.8646179 L30.1348488,51.8646179 L28.2698904,48.9509157 L27.4539804,49.506434 L27.4539804,51.8646179 L25.362962,51.8646179 L25.362962,41.3214286 L27.4539804,41.3214286 L27.4539804,46.0238064 L27.3445632,47.7447182 L27.3718437,47.7447182 Z M33.6994601,41.9584093 L36.6342589,41.9584093 C37.2648086,41.9584093 37.8177931,42.0022737 38.2933596,42.0905853 C38.7687788,42.1786055 39.1661902,42.3208369 39.4863314,42.5172793 C39.8060301,42.7138675 40.0475737,42.9710789 40.209635,43.2896421 C40.3718437,43.6082054 40.4530956,44.0000702 40.4530956,44.4652366 C40.4530956,44.7456189 40.4188843,45.0074936 40.3501667,45.2514436 C40.2814492,45.4953937 40.1808798,45.7097608 40.0486059,45.8951279 C39.9158897,46.0802035 39.7550081,46.2351132 39.5650763,46.3592742 C39.3754396,46.4832894 39.157195,46.5659177 38.9104903,46.6067218 L38.9104903,46.6741942 C39.1619138,46.7286968 39.3957894,46.8063703 39.6132966,46.908089 C39.8303614,47.0095162 40.0198507,47.1495616 40.1823544,47.3280795 C40.3444157,47.5065973 40.4724132,47.7314569 40.5661993,48.002221 C40.659838,48.2732766 40.7067311,48.603061 40.7067311,48.991574 C40.7067311,49.4433334 40.626659,49.8465651 40.4668096,50.2011233 C40.3068128,50.5555358 40.0772136,50.8561744 39.7778647,51.102019 C39.4785158,51.3484464 39.1150208,51.5368738 38.6875269,51.6680297 C38.2601806,51.7988942 37.776651,51.8646179 37.2375281,51.8646179 L33.6994601,51.8646179 L33.6994601,41.9584093 Z M35.8251321,45.8815751 L36.9290365,45.8815751 C37.1938792,45.8815751 37.4156628,45.8576756 37.5937975,45.8103137 C37.7722271,45.7629518 37.9161505,45.6918362 38.0258627,45.596821 C38.1357222,45.5020972 38.2143197,45.3836197 38.2623925,45.2412426 C38.3103178,45.0990113 38.3346492,44.9328804 38.3346492,44.7431415 C38.3346492,44.3638093 38.2143197,44.0917336 37.9743982,43.9266229 C37.7343293,43.7618035 37.3537285,43.6796125 36.8330384,43.6796125 L35.8251321,43.6796125 L35.8251321,45.8815751 Z M35.8251321,47.5482757 L35.8251321,50.1297162 L37.072665,50.1297162 C37.3516641,50.1297162 37.585982,50.0982388 37.7756188,50.0349925 C37.9655505,49.9717462 38.1186166,49.88154 38.235112,49.7639368 C38.3514599,49.6464794 38.4350711,49.5041023 38.4850609,49.3372428 C38.5356406,49.1700919 38.5607092,48.9847248 38.5607092,48.7815788 C38.5607092,48.5963575 38.5356406,48.4281864 38.4850609,48.2767741 C38.4350711,48.1255076 38.3492479,47.9953718 38.2280338,47.887241 C38.1071145,47.7788187 37.9482974,47.6950247 37.7515824,47.6362959 C37.5553098,47.5777129 37.310522,47.5482757 37.0179564,47.5482757 L35.8251321,47.5482757 Z M46.0801175,44.1468191 C46.135121,44.1468191 46.1955807,44.1479849 46.2619388,44.1503166 C46.3282969,44.1525025 46.3922957,44.1570201 46.4537875,44.1637237 C46.5157218,44.1705729 46.5726423,44.1775679 46.625139,44.1842714 C46.6777831,44.1911207 46.7177454,44.1986986 46.7454684,44.2080252 L46.7454684,46.1457815 C46.7086027,46.136892 46.6584655,46.1277111 46.5943193,46.1185302 C46.530468,46.1096407 46.4632251,46.1019171 46.3922957,46.0947764 C46.3212187,46.0880729 46.2517639,46.0835553 46.1830463,46.0813693 C46.1144763,46.0793291 46.0572608,46.0778718 46.0116949,46.0778718 C45.7421334,46.0778718 45.493954,46.1116809 45.2677465,46.1795906 C45.0413916,46.2475002 44.8471835,46.3570883 44.6848272,46.5083548 C44.5227659,46.6596213 44.396833,46.8582497 44.3079131,47.1046772 C44.2186982,47.3506674 44.1740171,47.6523261 44.1740171,48.009216 L44.1740171,51.8646179 L42.0831462,51.8646179 L42.0831462,44.2891962 L43.6668935,44.2891962 L43.9752376,45.4274841 L44.0781665,45.4274841 C44.188026,45.2333733 44.3067334,45.0570414 44.4347308,44.8990713 C44.5628757,44.7409556 44.7056195,44.6067393 44.8632569,44.4956939 C45.0210418,44.3850858 45.1991765,44.2995429 45.3979559,44.2383368 C45.5968829,44.1775679 45.8244175,44.1468191 46.0801175,44.1468191 Z M52.0230042,51.8646179 L51.618367,50.8344608 L51.5565802,50.8344608 C51.4055786,51.0377525 51.2550194,51.2127729 51.1041652,51.3598133 C50.9531636,51.5065622 50.7885955,51.6273714 50.6104608,51.7220951 C50.4320311,51.8168189 50.2319245,51.8872059 50.0102883,51.9320904 C49.7889471,51.9772663 49.531625,52 49.2390594,52 C48.9283559,52 48.6403616,51.951618 48.3753715,51.8544169 C48.1103814,51.7572158 47.8803398,51.6104668 47.6861317,51.4138786 C47.4917761,51.2172905 47.3398897,50.9688228 47.2304726,50.6684757 C47.120613,50.3682743 47.0659044,50.0124045 47.0659044,49.6013035 C47.0659044,48.7974632 47.3261757,48.2043469 47.8474557,47.8226831 C48.3685882,47.441165 49.1479276,47.2298582 50.1851789,47.1891999 L51.4055786,47.1485415 L51.4055786,46.5793247 C51.4055786,46.2677565 51.3142993,46.0372135 51.1315933,45.8884244 C50.9488872,45.739198 50.6925974,45.6645849 50.3636085,45.6645849 C50.0346197,45.6645849 49.7134463,45.7119467 49.4005309,45.8069619 C49.087173,45.9018314 48.7730779,46.028324 48.4575081,46.1862941 L47.7787382,44.8176089 C48.162878,44.605282 48.5877175,44.4384225 49.0538465,44.316156 C49.5202704,44.194181 50.0092561,44.1334121 50.5213934,44.1334121 C51.4763606,44.1334121 52.2089544,44.3547742 52.7187323,44.7976441 C53.2283627,45.2400768 53.4833254,45.9131983 53.4833254,46.8165713 L53.4833254,51.8646179 L52.0230042,51.8646179 Z M51.4055786,48.3545933 L50.7130947,48.3816989 C50.4343905,48.3905884 50.1991878,48.4270206 50.0070442,48.4904126 C49.8149005,48.5532217 49.6608022,48.6380359 49.5441594,48.7441265 C49.4275165,48.8505085 49.3431679,48.9770012 49.2906713,49.1237501 C49.2380272,49.2703533 49.2116314,49.4340068 49.2116314,49.615002 C49.2116314,49.9310878 49.2896391,50.1558017 49.4449171,50.2891435 C49.6003426,50.4223397 49.8035459,50.488792 50.0549695,50.488792 C50.2471131,50.488792 50.4252479,50.4562945 50.5896685,50.3905708 C50.7542367,50.3251386 50.8972753,50.2279374 51.0181946,50.0994046 C51.1395563,49.9707261 51.2342272,49.8126103 51.3029447,49.6250573 C51.3716622,49.43765 51.4055786,49.2219713 51.4055786,48.9780213 L51.4055786,48.3545933 Z M55.0790172,42.3310379 C55.0790172,42.1369271 55.1086572,41.9753138 55.1679371,41.8464895 C55.2273645,41.717811 55.3084689,41.6137606 55.4112503,41.535067 C55.5143266,41.4557906 55.6355407,41.4007051 55.7745979,41.3687904 C55.9140974,41.3374587 56.0615599,41.3214286 56.2169854,41.3214286 C56.3722634,41.3214286 56.5185462,41.3374587 56.6559813,41.3687904 C56.792974,41.4007051 56.9131559,41.4557906 57.0157898,41.535067 C57.1188661,41.6137606 57.2010027,41.717811 57.2624946,41.8464895 C57.3244289,41.9753138 57.3552485,42.1369271 57.3552485,42.3310379 C57.3552485,42.5209226 57.3244289,42.6809328 57.2624946,42.8120888 C57.2010027,42.9432447 57.1188661,43.0483152 57.0157898,43.1270088 C56.9131559,43.2062853 56.792974,43.2626823 56.6559813,43.2967829 C56.5185462,43.3303005 56.3722634,43.3473508 56.2169854,43.3473508 C56.0615599,43.3473508 55.9140974,43.3303005 55.7745979,43.2967829 C55.6355407,43.2626823 55.5143266,43.2062853 55.4112503,43.1270088 C55.3084689,43.0483152 55.2273645,42.9432447 55.1679371,42.8120888 C55.1086572,42.6809328 55.0790172,42.5209226 55.0790172,42.3310379 Z M55.1679371,51.8646179 L57.2593979,51.8646179 L57.2593979,44.2893419 L55.1679371,44.2893419 L55.1679371,51.8646179 Z M65.6357109,51.8646179 L63.544545,51.8646179 L63.544545,47.4398535 C63.544545,46.8933704 63.4610812,46.4832894 63.2944486,46.2100479 C63.127521,45.9368063 62.8613512,45.8001127 62.4954967,45.8001127 C62.2213639,45.8001127 61.992797,45.8544695 61.810091,45.9630375 C61.6269425,46.0711683 61.4819869,46.2316157 61.3744867,46.4440884 C61.267134,46.6561238 61.190601,46.9179985 61.1447401,47.2298582 C61.0990267,47.5415722 61.0761701,47.8981706 61.0761701,48.3005279 L61.0761701,51.8646179 L58.9851517,51.8646179 L58.9851517,44.2891962 L60.582613,44.2891962 L60.8636766,45.2581472 L60.9803194,45.2581472 C61.0900315,45.0637449 61.22378,44.8968854 61.3815649,44.75684 C61.5389074,44.6165031 61.7117335,44.5012316 61.8991583,44.4111712 C62.0865832,44.3206736 62.2855101,44.2542213 62.4954967,44.2110855 C62.7056308,44.168387 62.9206311,44.1468191 63.1400554,44.1468191 C63.5149051,44.1468191 63.8552485,44.1998644 64.1613807,44.3062465 C64.4679553,44.4121913 64.7308809,44.5784679 64.9501577,44.8043476 C65.169287,45.0300815 65.3385739,45.317896 65.4572812,45.6680824 C65.576431,46.018123 65.6357109,46.4369477 65.6357109,46.9251392 L65.6357109,51.8646179 Z M72.4285714,49.615002 C72.4285714,50.0124045 72.3555775,50.3602592 72.2092947,50.6584204 C72.0628644,50.9564359 71.8547948,51.2049035 71.5850859,51.4036776 C71.3153769,51.602306 70.9887475,51.7513866 70.6047551,51.8507737 C70.2209102,51.9501607 69.7913519,52 69.3156378,52 C69.0645092,52 68.8312235,51.9921306 68.6163706,51.9762462 C68.4016652,51.9603618 68.1981669,51.9345678 68.0061707,51.8981355 C67.8140271,51.8619948 67.6291091,51.8168189 67.4506795,51.7627535 C67.2725447,51.7086881 67.0919032,51.6407784 66.9091971,51.5594617 L66.9091971,49.8518113 C67.1011933,49.9469723 67.3033644,50.0328065 67.5160054,50.1096056 C67.7286463,50.186259 67.9399601,50.2530028 68.1502416,50.3092541 C68.3606706,50.3659426 68.5649062,50.4099527 68.7636857,50.4414302 C68.9626126,50.4733448 69.1467933,50.488792 69.3156378,50.488792 C69.5030627,50.488792 69.6633544,50.4718875 69.7956283,50.4383699 C69.9283446,50.4042693 70.0367295,50.3569074 70.121373,50.2958471 C70.205869,50.2350781 70.2678033,50.1625052 70.306291,50.0791483 C70.3453685,49.9955 70.3646861,49.9063139 70.3646861,49.8115902 C70.3646861,49.716575 70.3499399,49.6320523 70.3202999,49.5574391 C70.29066,49.4828259 70.2231221,49.4036952 70.1178339,49.3203383 C70.0126931,49.2365442 69.8585948,49.1416747 69.6549491,49.0357299 C69.4518932,48.9293478 69.1786452,48.7996492 68.8360897,48.6459053 C68.5022346,48.4969704 68.2129132,48.3489099 67.9685678,48.202161 C67.724075,48.0555578 67.5229361,47.8914671 67.3651512,47.7109091 C67.2075138,47.5303511 67.0898387,47.3235619 67.012126,47.0908329 C66.9345607,46.8582497 66.8954831,46.5815107 66.8954831,46.261053 C66.8954831,45.9085349 66.9642006,45.6003185 67.1011933,45.3359664 C67.2383334,45.0719057 67.4323941,44.8517095 67.6838177,44.6752319 C67.9352413,44.4991914 68.2382767,44.3671611 68.5923342,44.2789952 C68.9469816,44.1911207 69.3410014,44.1468191 69.7752785,44.1468191 C70.2322648,44.1468191 70.6666894,44.1986986 71.0779623,44.3026032 C71.4892352,44.4066536 71.9120103,44.5624377 72.3461399,44.770247 L71.7155902,46.233656 C71.3680211,46.0711683 71.0366728,45.9378264 70.7213979,45.8339218 C70.4058282,45.7300171 70.0902584,45.6781377 69.7752785,45.6781377 C69.4915606,45.6781377 69.287325,45.7278312 69.1615395,45.8272182 C69.0359014,45.9266053 68.972935,46.0622788 68.972935,46.233656 C68.972935,46.3241536 68.9891558,46.4044501 69.0208603,46.4745457 C69.0530071,46.5444955 69.1171533,46.6164856 69.2128565,46.6910987 C69.3088546,46.7657119 69.4437828,46.8470286 69.6174936,46.9350488 C69.7913519,47.0233605 70.0172645,47.1304712 70.296411,47.2571095 C70.6208285,47.3970092 70.9132467,47.5358888 71.1738129,47.6737482 C71.4345266,47.8111705 71.6583747,47.9685577 71.845947,48.1445981 C72.0332244,48.3204928 72.1770004,48.5264076 72.2774224,48.761031 C72.3784342,48.9960916 72.4285714,49.2805543 72.4285714,49.615002 Z" id="Fill-1"></path>
                    <path d="M41.7210569,26.5191132 L41.9614096,26.776532 L42.5532396,26.776532 L42.7498785,26.4896981 L44.2814832,20.5414065 L44.0262648,19.8628101 L42.0001192,19.8628101 L41.7210569,20.1417415 L41.7210569,26.5191132 Z M52,21.5066904 L51.9935239,18.4997636 L51.9924936,18.0264876 L51.6087829,17.7560442 L50.6073377,17.0511059 L50.2900073,16.8270535 L50.5837881,16.5737323 L51.5855277,15.7097183 L51.9106588,15.4293235 L51.9939654,15.0959523 L51.8385383,14.6952628 L50.8604955,12.1721487 L50.8390065,12.1166844 L50.8390065,10.0987492 L50.5730436,9.83328151 L50.5715718,9.83328151 L49.4787248,8.74141013 L49.3899724,8.65228674 L49.3899724,6.59600947 L49.1263645,6.32790756 L46.6891318,3.85176982 L46.6563096,3.81840342 L46.6538074,3.8129887 L44.5770303,1.73797942 L44.5770303,1.73680867 L44.3112145,1.47090192 L42.8367175,1.47090192 L42.7475235,1.38192486 L41.631127,0.266931161 L41.3639866,0 L37.5555806,0 L35.3017401,2.25193898 L35.3017401,9.06731786 L33.4628135,8.5546754 L33.4628135,5.63160358 C33.5634879,5.58111495 33.6556256,5.51511388 33.7352526,5.43521014 C34.1372142,5.03232556 34.1364782,4.37992473 33.7334863,3.97777186 C33.3303472,3.57591168 32.6778771,3.57591168 32.2750324,3.97806455 C31.8720405,4.38021742 31.8713046,5.03232556 32.2732662,5.43521014 C32.3528931,5.51511388 32.4450308,5.58111495 32.5461468,5.63160358 L32.5461468,6.8968924 L31.0351479,6.47600752 L31.0298492,6.47454408 C30.9709753,6.09258667 30.7020687,5.77633763 30.3344011,5.65633568 C29.9667336,5.53604105 29.5625642,5.63292067 29.2890949,5.90629096 C29.0945166,6.09931848 28.9853055,6.3624447 28.9853055,6.63640037 C28.9853055,6.91079506 29.0945166,7.17348225 29.2890949,7.36694881 C29.481171,7.55968364 29.742424,7.66797808 30.014863,7.66797808 C30.2868605,7.66768539 30.5478191,7.55895192 30.7400424,7.3659244 L30.758882,7.34602164 C30.7696265,7.34997292 30.7806654,7.35348517 30.7917042,7.35626571 L32.5461468,7.84505413 L32.5461468,8.81414302 C32.5021385,9.0474151 32.644319,9.27527246 32.8734857,9.33878568 L35.3017401,10.0153332 L35.3017401,11.5367238 C35.2699482,11.5509191 35.2403641,11.5686267 35.2128405,11.5899929 L32.3771786,13.8123705 L30.6849953,13.8123705 C30.5364858,13.5157315 30.2544798,13.308655 29.9271409,13.2555322 C29.5996547,13.2025557 29.2665756,13.3101184 29.0321103,13.5447076 C28.8390038,13.736418 28.7300871,13.9970564 28.7296455,14.2692559 C28.7293512,14.5411628 28.8378264,14.8020938 29.0306384,14.994097 L29.0306384,14.994536 C29.2241864,15.1885879 29.4872056,15.2979068 29.7618524,15.2979068 C30.0359104,15.2979068 30.2990768,15.1885879 30.4924776,14.994536 L30.4924776,14.994097 C30.5703383,14.9163884 30.635394,14.8265333 30.6849953,14.7281902 L32.5324586,14.7281902 C32.6491761,14.7281902 32.7610365,14.6841407 32.8459621,14.604676 L35.3017401,12.6801082 L35.3017401,14.0075931 L35.5809496,14.2862318 L36.8451197,14.2862318 L37.1253595,14.0062761 L37.1253595,9.41005513 L39.3276853,8.49965011 C39.4463162,8.47477166 39.5497871,8.40408759 39.6157259,8.302964 L39.6186696,8.29872002 L39.619847,8.29725659 C39.6687124,8.22349929 39.6950585,8.13686374 39.6953528,8.04817937 L39.8142781,6.94211265 L41.4929205,6.90611206 L41.4929205,6.905234 C41.561067,6.90377056 41.6278889,6.88664833 41.688529,6.85547709 L42.6699571,6.35102988 C42.6982166,6.3363955 42.7245627,6.31941961 42.7488482,6.29951685 C43.1627317,6.54654525 43.6924498,6.47571483 44.0262648,6.12858725 L44.0250873,6.12785553 C44.4189538,5.7178001 44.4064431,5.06715539 43.9974166,4.67275875 L43.9962391,4.6739295 C43.5852992,4.28114264 42.9337122,4.29577702 42.5402873,4.70612514 L42.5402873,4.70656418 C42.3507133,4.90383567 42.2479784,5.16827898 42.2540129,5.44194196 C42.2547489,5.4731132 42.2569566,5.50486981 42.2604891,5.53604105 L42.2590172,5.53648008 L41.3719346,5.99248748 L39.9128919,6.02336603 L39.9823631,5.37769702 C39.9853068,5.35106244 39.9857484,5.32413517 39.9842765,5.29750059 C40.111297,5.24525584 40.2271314,5.1679863 40.3245677,5.07066764 L40.3241262,5.07066764 C40.7260878,4.66749037 40.7253519,4.01538223 40.3226543,3.61322936 C39.9196624,3.21093015 39.2666036,3.21093015 38.8640532,3.61322936 C38.4609141,4.01538223 38.4601782,4.66778306 38.8625814,5.07066764 L38.8621398,5.07066764 C38.9292561,5.13769312 39.0050562,5.19535259 39.0877741,5.24174359 C39.0857135,5.25286572 39.0839473,5.2641342 39.0827698,5.27554902 L38.820045,7.72300336 L37.1253595,8.42369766 L37.1253595,2.99873159 L37.2142591,2.90960819 L38.2142324,1.91081149 L38.303132,1.82198078 L40.6093703,1.82198078 L40.6982699,1.91081149 L41.8146664,3.02609788 L42.0816596,3.29302904 L43.5549792,3.29302904 L43.6438788,3.38215244 L45.1812238,4.91803102 L45.1847562,4.91451877 L45.399646,5.13315646 L47.4780422,7.24519073 L47.566353,7.33431413 L47.566353,9.40771363 L47.8326103,9.67391307 L47.8333462,9.67347404 L48.9261932,10.7653454 L49.0153871,10.8544688 L49.0153871,11.8899978 L47.1318636,11.8899978 L46.2160799,9.91142912 C46.5526915,9.4737147 46.4845449,8.84897285 46.0618303,8.4939427 C45.6388212,8.13861987 45.0112253,8.17915711 44.6376704,8.58555395 C44.2639682,8.99195078 44.2767733,9.62020488 44.666813,10.0110893 C44.8602138,10.2055802 45.123233,10.3148991 45.3977326,10.3148991 L45.4039143,10.3148991 L46.4206667,12.5122518 C46.4924929,12.6878644 46.6626385,12.8028907 46.8522125,12.8039151 L47.033397,12.8039151 L47.033397,14.3782821 L45.0440475,16.058602 C44.6543023,15.8818187 44.1955273,15.9664054 43.8942401,16.2705079 C43.5446762,16.6198307 43.4933088,17.16862 43.7725183,17.5764803 C44.0512862,17.9846333 44.5811514,18.1365382 45.034039,17.9380959 C45.4870737,17.7400927 45.7349329,17.2477921 45.6239556,16.7664672 L45.6252802,16.7650037 L47.7394423,14.9788772 C47.8701424,14.8969246 47.9488863,14.7535077 47.9482975,14.5989686 L47.9482975,14.5986759 L47.9482975,14.5954563 L47.9482975,14.5844806 L47.9482975,12.8039151 L49.1560958,12.8039151 L49.8347648,14.5546264 L49.9117424,14.7535077 L49.7501335,14.8929734 L48.2192647,16.2134338 L47.403861,16.9169086 L47.4091597,17.023447 L48.2906493,17.6442375 L50.0499489,18.8834771 L50.1778525,18.9731859 L50.1781469,19.1315299 L50.1827096,21.3496635 L50.1827096,21.3887373 L50.1735841,21.4257623 L49.9354392,22.3379234 L48.0789976,21.9736736 L47.6087422,20.5851633 L47.6190452,20.5747729 C47.9544793,20.2365723 48.0114398,19.7119296 47.7569573,19.3093377 C47.5023277,18.9068922 47.0033713,18.7333284 46.553869,18.8905016 C46.1039251,19.0478213 45.8223606,19.494609 45.8749056,19.967885 C45.9273034,20.4410146 46.2992393,20.8155085 46.7725855,20.8712655 L47.2518192,22.2872885 L46.4400951,23.4581855 C46.4178702,23.4909665 46.3996193,23.52565 46.3860783,23.5625287 C46.0437265,23.4884787 45.6873922,23.5938463 45.4405633,23.8423381 C45.0678915,24.2146368 45.037277,24.8082074 45.3693259,25.2170921 C45.7016691,25.6259768 46.2892307,25.717588 46.7304907,25.4297297 C47.1717506,25.1414323 47.3234981,24.5671791 47.0825567,24.0988788 C47.1186169,24.0701954 47.1504089,24.0365364 47.1764606,23.9980479 L47.9530074,22.8779322 L49.705095,23.2214012 L48.8075622,26.664579 L48.7862204,26.7466779 L48.7289656,26.803752 L47.9243064,27.607765 L47.6573132,27.8746962 L47.6573132,29.1276921 L47.5685608,29.2168155 L46.8984285,29.8863386 C46.8919524,29.8788751 46.8869481,29.8702408 46.8798832,29.8632163 L45.4214293,28.406217 C45.5561034,28.0327476 45.4617579,27.6152286 45.1797519,27.3355655 C44.9212954,27.0741954 44.5424418,26.970584 44.1868434,27.0643904 C43.8309506,27.1576114 43.552477,27.4342013 43.4565126,27.7892314 C43.3605481,28.1441152 43.4613697,28.5231458 43.7214452,28.7834914 C43.9924123,29.0552519 44.3921662,29.1543267 44.7589506,29.0397395 L46.2315343,30.5109341 C46.2385992,30.518105 46.2471359,30.5230806 46.2543479,30.5293734 L45.4772123,31.3061665 L45.3881655,31.3951436 L43.1391822,31.3951436 L42.8720418,31.6622211 L42.0781271,32.4552583 L41.9902578,32.542772 L41.8627958,32.543211 L39.2009592,32.543211 L39.2009592,32.5442354 L38.061749,32.5442354 L37.9490055,32.8161422 L39.4912075,34.3571429 L42.7532637,34.3571429 L43.0159885,34.0947484 L43.8048989,33.3063941 L43.8942401,33.217417 L46.1444009,33.217417 L46.4102166,32.9513639 L46.4102166,32.9503395 L49.2137922,30.1490258 L49.2149697,30.1490258 L49.4809326,29.8834117 L49.4809326,28.6286597 L49.5701266,28.5399753 L50.246735,27.8637204 L50.2470293,27.8643058 L50.4173221,27.6944006 L50.4816419,27.4473722 L51.9711518,21.7341088 L52,21.6237655 L52,21.5066904 Z M30.2815618,6.900551 C30.1330524,7.04616311 29.8949074,7.04616311 29.7461036,6.900551 L29.7449261,6.89908756 C29.601421,6.75362178 29.601421,6.51961798 29.7449261,6.37415221 L29.7461036,6.37298146 C29.8949074,6.22707665 30.1330524,6.22707665 30.2815618,6.37298146 C30.4268332,6.51888627 30.4268332,6.75464619 30.2815618,6.900551 Z M33.2682353,4.97876371 L33.2669106,4.97978812 C33.1211977,5.12349777 32.8873211,5.12349777 32.7417553,4.97978812 L32.7402835,4.97876371 C32.5945705,4.82993203 32.5945705,4.59212329 32.7402835,4.44387699 C32.8862908,4.2987039 33.122228,4.2987039 33.2682353,4.44387699 C33.4142426,4.59212329 33.4142426,4.82993203 33.2682353,4.97876371 Z M30.0256075,14.5375042 L30.0245772,14.5386749 C29.8788643,14.6823846 29.6446933,14.6823846 29.4989804,14.5386749 L29.4976557,14.5375042 C29.3519428,14.3892579 29.3519428,14.1514491 29.4976557,14.0026175 C29.6435158,13.8574444 29.8796002,13.8574444 30.0256075,14.0026175 C30.1716148,14.1514491 30.1716148,14.3892579 30.0256075,14.5375042 Z M43.0112786,5.1573032 L43.0112786,5.15686416 C43.0797195,5.08559472 43.1737706,5.04403307 43.2729731,5.04198425 C43.3733532,5.03978909 43.4700536,5.07783849 43.5424685,5.14691278 L43.5417325,5.14808353 C43.6142946,5.21657245 43.6563895,5.31067154 43.659186,5.41033169 C43.6618353,5.50969916 43.6250391,5.60628609 43.556451,5.67872629 L43.5554207,5.67770188 C43.4868326,5.74941037 43.3929287,5.79082567 43.2937262,5.79272814 C43.1937877,5.79448427 43.0970873,5.75658121 43.025114,5.68648251 L43.0248196,5.68648251 C42.9524047,5.61770091 42.9098683,5.5228701 42.9075133,5.42277092 C42.9053056,5.32413517 42.9428377,5.22827996 43.0112786,5.1573032 Z M39.3294515,4.07889545 C39.4751644,3.93372237 39.7115431,3.93372237 39.8571089,4.07889545 C40.0031162,4.22758079 40.0031162,4.46553587 39.8571089,4.61378218 L39.8560786,4.61524562 C39.7105129,4.75866258 39.4761947,4.75866258 39.330629,4.61524562 L39.3294515,4.61378218 C39.1834442,4.46553587 39.1834442,4.22758079 39.3294515,4.07889545 Z M45.6616349,9.55464284 L45.6603102,9.55566725 C45.5145973,9.69908421 45.2808678,9.69908421 45.1350077,9.55566725 L45.1336831,9.55464284 C44.9879701,9.4059575 44.9879701,9.16814877 45.1336831,9.01960977 C45.2796904,8.87443668 45.5156276,8.87443668 45.6616349,9.01960977 C45.8077893,9.16814877 45.8077893,9.4059575 45.6616349,9.55464284 Z M44.8840577,17.2633045 C44.7387863,17.4074532 44.504321,17.4074532 44.3590496,17.2633045 C44.2139254,17.1160826 44.2139254,16.879591 44.3590496,16.7323691 C44.504321,16.5879277 44.7387863,16.5879277 44.8840577,16.7323691 C45.0291819,16.879591 45.0291819,17.1160826 44.8840577,17.2633045 Z M46.4306753,24.8351347 C46.2854039,24.9792834 46.0507914,24.9792834 45.90552,24.8351347 C45.760543,24.6877664 45.760543,24.4514211 45.90552,24.3040529 C46.0507914,24.1599042 46.2854039,24.1599042 46.4306753,24.3040529 C46.5755051,24.4514211 46.5755051,24.6877664 46.4306753,24.8351347 Z M47.1543828,20.1134971 C47.0091115,20.2570604 46.7747933,20.2570604 46.6295219,20.1134971 C46.4842506,19.9656898 46.4842506,19.7293445 46.6295219,19.5819763 C46.7747933,19.4378276 47.0094058,19.4378276 47.1543828,19.5819763 C47.299507,19.7293445 47.299507,19.9656898 47.1543828,20.1134971 Z M44.7164142,28.3283621 L44.7149424,28.3298255 C44.5689351,28.4738279 44.3335866,28.4738279 44.1875793,28.3298255 L44.1862547,28.3283621 C44.0398058,28.1796768 44.0398058,27.9406973 44.1862547,27.7915729 C44.3325563,27.6456681 44.5699654,27.6456681 44.7164142,27.7915729 C44.8627159,27.9406973 44.8627159,28.1796768 44.7164142,28.3283621 Z M43.7828212,14.7278975 L44.0380396,14.0494475 L42.7498785,8.34423296 L42.5532396,8.05739903 L41.9614096,8.05739903 L41.7210569,8.3146715 L41.7210569,14.4488198 L42.0001192,14.7278975 L43.7828212,14.7278975 Z M38.8107723,28.4394371 C38.810478,28.5761222 38.8700878,28.7059292 38.9735587,28.7954916 L39.6539939,29.4710148 C39.6782794,29.4951615 39.705067,29.5163814 39.7339152,29.5343817 C39.6386867,29.9590715 39.8222261,30.3978103 40.1916599,30.6284482 C40.5610937,30.8587934 41.0360589,30.8315735 41.376203,30.5596666 C41.7164942,30.2877598 41.847783,29.8308743 41.7039834,29.4197944 C41.5600367,29.0091536 41.172352,28.7337345 40.7365379,28.7334418 C40.5887644,28.7330028 40.4423156,28.7653448 40.3079359,28.8273946 L40.2880659,28.8064674 L39.7228764,28.2452388 L39.7228764,22.8508586 C40.1419114,22.6272452 40.3515026,22.1448959 40.2297807,21.6862543 C40.1077646,21.2276127 39.6857858,20.9131198 39.2109677,20.9265835 C38.7361496,20.9404861 38.3334521,21.2786867 38.237782,21.7437675 C38.1425534,22.2084091 38.3799625,22.6780265 38.8107723,22.8772005 L38.8107723,25.2128481 L37.1253595,25.2128481 L37.1253595,19.3506067 L39.2405519,19.3506067 C39.2537985,19.3506067 39.2666036,19.3494359 39.2795558,19.3470944 C39.3874423,19.3388992 39.488411,19.2928009 39.5647999,19.2164094 L40.7881998,17.993853 C41.1430623,18.087952 41.52118,17.9856577 41.7793421,17.7251657 C42.0731229,17.4305755 42.1605506,16.9883244 42.0015911,16.6041719 C41.8427787,16.2198729 41.4678991,15.9688933 41.0521021,15.9674298 C40.9386226,15.9674298 40.8257319,15.9861618 40.7185814,16.0231868 L39.6940282,14.9993653 L39.6940282,12.3056143 C39.9920773,12.1589778 40.2009325,11.8775586 40.2552437,11.5501874 C40.3094077,11.2226699 40.2028459,10.8888596 39.9677918,10.6539778 C39.5658302,10.253142 38.9146848,10.253581 38.5130175,10.6550022 C38.1117918,11.0564233 38.1117918,11.707068 38.5133119,12.1086355 C38.5933804,12.1888319 38.6858125,12.2555647 38.7875171,12.305907 L38.7875171,15.1076598 C38.7736818,15.1953197 38.7858981,15.2851749 38.8218112,15.366542 L38.823283,15.3696152 C38.8561052,15.4505434 38.9114467,15.5209348 38.982537,15.5715697 L40.0781804,16.666368 C39.9985535,16.9012499 40.0060599,17.1569125 40.0995222,17.386526 L39.0506835,18.4347869 L37.1253595,18.4347869 L37.1253595,16.8598345 L36.8451197,16.5797324 L27.5876389,16.5797324 L27.3073991,16.8598345 L27.3073991,22.5343169 L27.5743922,22.801248 L27.9307266,23.1571562 L30.8728031,24.1337087 L31.1986701,23.846143 L30.7525531,23.400087 L29.2197708,21.8690378 L29.1308712,21.7799144 L29.1308712,18.4017132 L35.3017401,18.4017132 L35.3017401,21.7352795 L33.711703,21.7352795 L32.8908535,20.915315 L32.8762822,20.9011196 C32.9566451,20.5567726 32.8531742,20.1954496 32.6023713,19.9457871 C32.3443564,19.6835389 31.9655028,19.5794884 31.6093157,19.6728558 C31.2529813,19.7659305 30.9740662,20.042374 30.8778073,20.3974041 C30.7814013,20.752288 30.8823701,21.1317575 31.1425927,21.3919569 L31.1425927,21.3923959 C31.445499,21.6962057 31.9053042,21.7806461 32.2965214,21.6043018 L33.067328,22.3742167 L33.067328,24.6466438 L32.1843666,25.5286581 C31.8027165,25.3722166 31.3644002,25.4606083 31.0729743,25.7527106 C30.8788376,25.9458844 30.7696265,26.2081326 30.7696265,26.4822346 C30.7696265,26.7558976 30.8788376,27.0181457 31.0729743,27.2111732 C31.3676383,27.5034219 31.8091926,27.5896184 32.1923146,27.4303963 C32.5752893,27.2708815 32.8244732,26.8968267 32.8241788,26.4822346 C32.8241788,26.3931112 32.8126984,26.3042805 32.7898847,26.218084 L32.8071054,26.2021325 L33.763512,25.2462145 C33.9048094,25.1570911 33.9901766,25.0009423 33.9887047,24.8341103 L33.9887047,22.6509529 L35.3017401,22.6509529 L35.3017401,31.3554844 L35.2125461,31.4446078 L34.200798,32.4552583 L34.1118984,32.5442354 L32.2925474,32.5442354 L32.2925474,31.1248465 L32.8519967,30.5656667 C32.8773125,30.5404956 32.8993902,30.5123975 32.9180827,30.481958 C33.0180211,30.513861 33.1226695,30.5298125 33.2276123,30.5298125 C33.694188,30.5315686 34.103656,30.2195635 34.2258194,29.7695562 C34.3478356,29.3198416 34.152227,28.8437851 33.7484992,28.6094886 C33.3450657,28.3756312 32.8341874,28.4419249 32.5036104,28.7710522 C32.2154226,29.0571544 32.1229905,29.4857955 32.2672316,29.8652651 C32.2447123,29.8810702 32.2233705,29.8987778 32.2040893,29.9182416 L31.8355387,30.2860036 L30.1165677,28.5686587 C30.0947843,28.5437802 30.070646,28.5210969 30.0441528,28.5011942 L30.0438584,28.5009015 L30.0398844,28.4979746 C29.9405347,28.4224612 29.8149861,28.3896802 29.691498,28.4073878 L28.2047846,28.4073878 L27.2926806,26.436429 C27.6357683,26.0310565 27.610011,25.4300224 27.2330708,25.0556749 L27.2330708,25.0552358 C27.0399643,24.8613302 26.7772395,24.7520114 26.5033286,24.7520114 C26.2292706,24.7520114 25.9663986,24.8613302 25.7732922,25.0552358 L25.7732922,25.0556749 C25.5809217,25.2469463 25.4727408,25.5069993 25.4727408,25.7786134 C25.4727408,26.0497885 25.5809217,26.3099879 25.7732922,26.5016983 C25.9568316,26.6859452 26.2035133,26.7942397 26.4637359,26.8040447 L27.4719516,28.9822264 C27.5100725,29.111009 27.6029461,29.2172546 27.7258454,29.2724262 L27.7290834,29.2738896 L27.7296722,29.2743287 C27.8070914,29.3104756 27.893636,29.3243783 27.978856,29.3145732 L29.5789017,29.3145732 L31.3844173,31.1188464 L31.3844173,32.5442354 L30.437872,32.5442354 L30.3489724,32.4552583 L29.5550578,31.6622211 L29.2880646,31.3951436 L27.038934,31.3951436 L26.9495929,31.3061665 L24.858686,29.2168155 L24.7697864,29.1276921 L24.7697864,27.8732328 L24.5035291,27.607765 L24.5023516,27.607765 L23.6976925,26.803752 L23.6408791,26.7466779 L23.6195373,26.664579 L22.2532211,21.4245915 L22.2436541,21.3880056 L22.2436541,21.0692687 L23.8269207,21.7955732 L23.8264791,21.8144515 C23.8269207,22.0859193 23.9351015,22.3456797 24.127472,22.5373901 L24.127472,22.5378291 C24.5123602,22.9250549 25.1331856,22.9439333 25.5408874,22.5799761 C25.9481477,22.2166044 25.9996623,21.5978626 25.6576049,21.1718557 C25.3156947,20.7462879 24.700168,20.6624328 24.2564059,20.9813161 L22.2436541,20.0580328 L22.2439484,14.6074565 L22.2439484,14.4804301 L22.3318178,14.3927701 L23.4695561,13.2558248 L23.470292,13.2562639 L23.7369908,12.9896254 L23.7369908,12.325078 L25.1496703,12.325078 L25.7529807,13.8499808 C25.7622533,13.8738349 25.7735865,13.8965182 25.7868332,13.9181771 L24.3453055,15.3582004 C24.2611158,15.4424945 24.2131335,15.55635 24.2113673,15.6751812 L24.2113673,15.6759129 L24.2113673,15.682352 L24.211073,15.682352 L24.211073,16.7269543 C23.91479,16.8750543 23.707701,17.1561808 23.6544201,17.4826739 C23.6012864,17.8093134 23.708437,18.1419529 23.9423136,18.3761031 C24.344128,18.7773779 24.995715,18.7773779 25.3973822,18.3755177 C25.7990495,17.9739502 25.7986079,17.3230128 25.3966463,16.9214453 C25.3181968,16.8427123 25.2273838,16.7771503 25.1278869,16.7269543 L25.1278869,15.8718673 L28.0031415,12.9988451 C28.0166825,12.9859668 28.0291932,12.9726495 28.0406736,12.9583078 L28.0424398,12.956259 L28.0567168,12.9381124 L28.0605436,12.932405 L28.0634873,12.9286 L28.0670197,12.9231853 L28.0699634,12.919234 C28.1191231,12.8444523 28.1456164,12.756646 28.1456164,12.6673763 L28.1456164,9.59678987 L30.8352709,11.1597421 C30.8017128,11.4675031 30.910188,11.7742398 31.1297877,11.9928775 C31.5068751,12.3729325 32.112982,12.4000061 32.52245,12.0546346 C32.9316237,11.7092632 33.0069823,11.1079363 32.6952449,10.6724171 C32.3832132,10.2371905 31.7891755,10.114408 31.3301061,10.3902662 L27.9450035,8.42296594 C27.8047364,8.32740342 27.6229632,8.31715935 27.4726876,8.3967704 C27.3224119,8.47594241 27.228508,8.63165226 27.228508,8.8017038 L27.228508,12.4777147 L26.4830171,13.2224585 L25.8832392,11.7063363 L25.8825033,11.7067753 C25.8118546,11.5292602 25.6405315,11.4121852 25.4494857,11.4110144 L23.7369908,11.4110144 L23.7369908,10.7710528 L23.8258904,10.6823685 L25.136718,9.37244476 L25.1374539,9.37317648 L25.4038584,9.10697704 L25.4038584,6.75859747 L25.4930523,6.66947407 L28.8721204,3.29302904 L30.34544,3.29302904 L30.6124332,3.02609788 L31.7285353,1.91081149 L31.8177293,1.82198078 L34.3746232,1.82198078 L34.4875139,1.55007393 L32.439585,0 L31.0616411,0 L30.7949423,0.266199441 L30.7956782,0.266931161 L29.6795761,1.38192486 L29.5903821,1.47090192 L28.115885,1.47090192 L27.8500693,1.73680867 L27.8500693,1.73797942 L23.8475266,5.73726383 L23.8462019,5.73726383 L23.580239,6.00287789 L23.580239,8.35125746 L23.4913394,8.44038086 L22.1803646,9.75015821 L22.1796287,9.74942649 L21.9133714,10.016065 L21.9133714,12.2341985 L21.8240303,12.3233219 L20.6910019,13.4555842 L20.4285714,13.7179787 L20.4285714,21.6294729 L20.4558006,21.7341088 L21.9451633,27.4473722 L22.0090415,27.6926445 L22.1803646,27.8637204 L22.856973,28.5399753 L22.946167,28.6286597 L22.946167,29.8819483 L23.2131602,30.1490258 L26.0167358,32.9503395 L26.2838761,33.217417 L28.5333011,33.217417 L28.6222007,33.3063941 L29.4112582,34.0947484 L29.6735415,34.3571429 L34.8729909,34.3571429 L37.1253595,32.1154479 L37.1253595,26.1289606 L38.8107723,26.1289606 L38.8107723,28.4394371 Z M40.4739603,29.4982347 C40.6193788,29.3537934 40.8538442,29.3537934 40.9992627,29.4982347 C41.1440926,29.645603 41.1440926,29.8819483 40.9992627,30.0293165 C40.8538442,30.1734652 40.6193788,30.1734652 40.4739603,30.0293165 C40.3291305,29.8819483 40.3291305,29.645603 40.4739603,29.4982347 Z M38.9781214,21.6760103 C39.12354,21.5314225 39.3580053,21.5314225 39.5034239,21.6760103 C39.6482537,21.8232322 39.6482537,22.0597238 39.5034239,22.2069457 C39.3580053,22.3510944 39.12354,22.3510944 38.9781214,22.2069457 C38.8332916,22.0597238 38.8332916,21.8232322 38.9781214,21.6760103 Z M39.5034239,11.6467744 C39.3580053,11.790923 39.12354,11.790923 38.9781214,11.6467744 C38.8332916,11.4994061 38.8332916,11.2630608 38.9781214,11.1156926 C39.12354,10.9712512 39.3580053,10.9712512 39.5034239,11.1156926 C39.6482537,11.2630608 39.6482537,11.4994061 39.5034239,11.6467744 Z M40.7892301,16.7323691 C40.9345014,16.5879277 41.169114,16.5879277 41.3143853,16.7323691 C41.4595095,16.879591 41.4595095,17.1160826 41.3143853,17.2633045 C41.169114,17.4074532 40.9345014,17.4074532 40.7892301,17.2633045 C40.6444003,17.1160826 40.6444003,16.879591 40.7892301,16.7323691 Z M32.137709,20.9372666 L32.1362372,20.93873 C31.9902299,21.0828787 31.7548814,21.0828787 31.6088741,20.93873 L31.6075494,20.9372666 C31.4611006,20.7881422 31.4611006,20.5496017 31.6075494,20.4004774 C31.7535567,20.2554506 31.9894939,20.2547189 32.1362372,20.399453 L32.137709,20.4004774 C32.2835691,20.5496017 32.2835691,20.7881422 32.137709,20.9372666 Z M32.0654413,26.7469706 C31.9163431,26.8928754 31.6774622,26.8928754 31.5282169,26.7469706 L31.5271866,26.7455072 C31.3825039,26.5993097 31.3825039,26.3645741 31.5271866,26.2183766 L31.5282169,26.2170596 C31.6774622,26.0708621 31.9163431,26.0708621 32.0654413,26.2170596 C32.2115958,26.3636961 32.2115958,26.6004804 32.0654413,26.7469706 Z M32.9576754,29.2367183 L32.9587057,29.2354012 C33.107951,29.0890574 33.3468319,29.0890574 33.4960773,29.2354012 C33.641643,29.3818914 33.641643,29.6186757 33.4960773,29.7653123 C33.3468319,29.9112171 33.107951,29.9112171 32.9587057,29.7653123 L32.9576754,29.7638488 C32.8131399,29.6176513 32.8131399,29.3824768 32.9576754,29.2367183 Z M26.7682612,26.047008 L26.7667894,26.0480324 C26.6207821,26.1921811 26.3855808,26.1921811 26.2395735,26.0480324 L26.2381017,26.047008 C26.0918,25.8978836 26.0918,25.6590505 26.2381017,25.5102188 L26.2395735,25.5089017 C26.3855808,25.364753 26.6207821,25.364753 26.7667894,25.5089017 L26.7682612,25.5102188 C26.9147101,25.6590505 26.9147101,25.8978836 26.7682612,26.047008 Z M24.5924287,21.5460569 C24.7387304,21.4001521 24.9756979,21.4001521 25.1221467,21.5460569 C25.2684484,21.6951813 25.2684484,21.9337218 25.1221467,22.0826998 C24.9761394,22.2283119 24.740055,22.2286046 24.593459,22.0841632 L24.5924287,22.0826998 C24.4459799,21.9337218 24.4459799,21.6951813 24.5924287,21.5460569 Z M24.9322784,17.9143882 C24.7868598,18.0588296 24.5523944,18.0588296 24.4071231,17.9143882 C24.2621461,17.76702 24.2621461,17.5306747 24.4071231,17.3833065 C24.5523944,17.2388651 24.7868598,17.2388651 24.9322784,17.3833065 C25.0771082,17.5306747 25.0771082,17.76702 24.9322784,17.9143882 Z M31.5945972,11.001398 L31.596069,11.0003736 C31.7428123,10.8554932 31.9787494,10.8559322 32.1247567,11.001398 C32.2712056,11.1505224 32.2712056,11.3890629 32.1247567,11.5381872 C31.9787494,11.6833603 31.7428123,11.6839457 31.596069,11.5392116 L31.5945972,11.5381872 C31.4482955,11.3890629 31.4482955,11.1505224 31.5945972,11.001398 Z" id="Fill-4"></path>
                </g>
            </g>
        </g>
    </g>
</svg>