<?xml version="1.0" encoding="UTF-8"?>
<svg width="55px" height="53px" viewBox="0 0 55 53" version="1.1" xmlns="http://www.w3.org/2000/svg" xmlns:xlink="http://www.w3.org/1999/xlink">
    <!-- Generator: Sketch 52.2 (67145) - http://www.bohemiancoding.com/sketch -->
    <title>Group 10</title>
    <desc>Created with Sketch.</desc>
    <defs>
        <polygon id="path-1" points="0.0613090323 0.00155555556 39.9151825 0.00155555556 39.9151825 49.9792629 0.0613090323 49.9792629"></polygon>
    </defs>
    <g id="RDC18" stroke="none" stroke-width="1" fill="none" fill-rule="evenodd">
        <g id="#1-Home-v.4.1" transform="translate(-344.000000, -4956.000000)">
            <g id="Organizators" transform="translate(-19.000000, 4601.000000)">
                <g id="Group-10" transform="translate(363.000000, 355.000000)">
                    <path d="M31.573228,36.536276 C26.9158104,39.0646502 22.2582835,41.5928064 17.6008658,44.1211806 C17.4169428,44.220972 17.2329104,44.3208724 17.0489873,44.4206637 L8.8463239,32.8165132 C6.36516547,29.3064758 3.88400705,25.7964384 1.40295791,22.286401 C5.62739677,20.6481872 9.85194493,19.0100825 14.0764931,17.3718688 C18.7928142,15.5430154 23.5091353,13.7140529 28.2254564,11.8853086 C30.7687967,15.4593652 33.3120278,19.0336398 35.8554775,22.6078054 C34.4280246,27.2505562 33.0006809,31.8935252 31.573228,36.536276 M36.9828397,22.3684153 C36.9208763,22.1434213 36.7101789,21.9323872 36.5791487,21.7482912 C36.2570921,21.2957948 35.9350354,20.8431893 35.6130881,20.3906929 L29.8901624,12.3481659 C29.5587075,11.882364 29.2272525,11.4166711 28.8957975,10.9507601 C28.7637838,10.7652463 28.5184438,10.6073252 28.2787864,10.7001366 C23.8207007,12.4289805 19.3626151,14.1578244 14.9045294,15.8864502 C10.0931322,17.7522755 5.28184432,19.6179917 0.470556405,21.4835988 C0.450885487,21.4913422 0.431214569,21.4988674 0.411652934,21.5063927 C0.110360044,21.6234157 -0.136291408,21.9944432 0.0851156998,22.3075589 C2.92166204,26.3204792 5.75831766,30.3335085 8.59497328,34.3464288 C11.2009328,38.0329278 13.8067829,41.7193178 16.4126331,45.4058168 C16.4651982,45.4801968 16.5272709,45.5352729 16.5942613,45.5739897 C16.7459459,45.6818516 16.9491028,45.7160969 17.1602373,45.6014732 C21.8780883,43.0403805 26.5959394,40.4792878 31.3137904,37.9183041 C31.7498291,37.6815315 32.4288036,37.4709336 32.5867174,36.9571446 C32.8742406,36.0218326 33.1618732,35.0866297 33.4493964,34.1513177 C34.4276967,30.9690103 35.4061063,27.7865938 36.3844066,24.6043955 C36.5337963,24.1188534 36.6830767,23.6330932 36.8324664,23.147442 C36.9029539,22.9180856 37.0500486,22.6124951 36.9828397,22.3684153" id="Fill-1" fill="#FFFFFF"></path>
                    <g id="Group-5" transform="translate(4.000000, 0.672745)">
                        <mask id="mask-2" fill="white">
                            <use xlink:href="#path-1"></use>
                        </mask>
                        <g id="Clip-4"></g>
                        <path d="M35.0016986,36.8816 C34.6727123,38.2491556 34.343726,39.6166 34.0147397,40.9842667 C29.1712329,42.6441556 24.3278356,44.3041556 19.4842192,45.9640444 C16.805863,46.8820444 14.1272877,47.8000444 11.4488219,48.7179333 C9.69945205,44.2559333 7.9499726,39.7939333 6.20049315,35.3319333 C4.55468493,31.1339333 2.90876712,26.9360444 1.2629589,22.7382667 C4.60257534,19.7434889 7.94230137,16.7487111 11.2820274,13.7540444 C15.7725479,9.72715556 20.2631781,5.70048889 24.753589,1.67371111 C24.8647123,1.57415556 24.975726,1.4746 25.0866301,1.37504444 C27.9884384,5.52804444 30.890137,9.68093333 33.7919452,13.8340444 L38.816274,21.0248222 L35.0016986,36.8816 Z M39.735726,20.4258222 C39.2551781,19.7379333 38.774411,19.0499333 38.2936438,18.3618222 C36.4196712,15.6798222 34.5456986,12.9977111 32.6716164,10.3156 C30.3322192,6.96726667 27.9927123,3.61904444 25.6530959,0.2706 C25.4416986,-0.0320666667 25.0730411,-0.0932888889 24.7926027,0.158266667 C21.365863,3.23104444 17.9392329,6.30382222 14.5124932,9.3766 C10.0219726,13.4032667 5.53134247,17.4301556 1.04082192,21.4568222 L0.227013699,22.1866 C0.0948493151,22.3051556 0.0192328767,22.5567111 0.0860821918,22.7271556 C1.90690411,27.3710444 3.72761644,32.0150444 5.54832877,36.6590444 L10.6060822,49.5591556 C10.6226301,49.6012667 10.6425753,49.6393778 10.6651507,49.6739333 C10.7623562,49.8958222 10.9835068,50.0488222 11.2801644,49.9471556 C16.2286575,48.2510444 21.1773699,46.5551556 26.1259726,44.8591556 C28.6847671,43.9821556 31.2437808,43.1051556 33.8026849,42.2281556 C34.1945753,42.0938222 34.9025205,41.9818222 35.0156164,41.5119333 C35.1882192,40.7940444 35.3609315,40.0760444 35.5336438,39.3581556 C36.9593973,33.4312667 38.3852603,27.5044889 39.8110137,21.5777111 C39.9161096,21.1409333 40.0086027,20.8161556 39.735726,20.4258222 Z" id="Fill-3" fill="#FFFFFF" mask="url(#mask-2)"></path>
                    </g>
                    <path d="M46.8791926,36.2575446 C45.1183452,39.6750234 43.3574979,43.0923906 41.5965385,46.5098694 C36.4657993,45.6728014 31.3350601,44.8356218 26.2043209,43.9984422 C23.3610377,43.5344214 20.5175306,43.0705123 17.6742473,42.6067148 C15.5805753,37.5806232 13.4870152,32.5545317 11.3933431,27.5285518 C11.0224557,26.6381276 10.6515684,25.747815 10.280681,24.8575024 C15.1291965,22.4616059 19.9776001,20.0658211 24.8262275,17.6699247 C26.0815128,17.049742 27.33691,16.4293361 28.5921952,15.8091535 C33.5207544,17.2505535 38.4492015,18.6919536 43.3777606,20.1334652 C46.7985893,21.1339507 50.2196418,22.1345478 53.6405824,23.1350332 C51.3868231,27.5092409 49.1329519,31.8833369 46.8791926,36.2575446 M54.5961799,22.2510832 C49.601123,20.7902606 44.6061781,19.3293263 39.6112332,17.8683921 C36.6440223,17.0005159 33.6769233,16.1328629 30.7097125,15.2650984 C30.0645498,15.0762306 29.4191632,14.8875862 28.7738886,14.6987184 C28.3425487,14.5725834 27.8412407,14.9370356 27.4655395,15.1227778 C21.9050277,17.8702897 16.3446279,20.6180248 10.7841161,23.3656483 C10.2842634,23.6126721 9.78441063,23.8596959 9.2845579,24.1067197 C9.08181808,24.2068464 8.93717984,24.5207329 9.02741081,24.7369485 C11.1695568,29.8794638 13.3117029,35.0222024 15.4539608,40.1648293 C15.8782479,41.1833978 16.302535,42.202078 16.726934,43.2207581 C16.7404799,43.4208999 16.8646314,43.5993865 17.1312942,43.6430315 C22.4159634,44.5052149 27.7004087,45.3673983 32.984854,46.2296933 C35.909972,46.7068856 38.8350901,47.1841896 41.7600961,47.6614937 C42.0005628,47.7006737 42.2698004,47.6427408 42.3923847,47.4049818 C44.7539509,42.8217025 47.1155172,38.2383116 49.4770834,33.6550322 C51.2949129,30.1269341 53.1128544,26.5989476 54.9306838,23.0709611 C55.0967044,22.7485911 54.9564321,22.3565678 54.5961799,22.2510832" id="Fill-6" fill="#FFFFFF"></path>
                    <path d="M44.9284672,36.0044471 C44.5975574,41.0964344 44.2666477,46.1883108 43.9357379,51.2802981 C39.6994826,49.3106334 35.4632273,47.3408579 31.227198,45.3713041 C26.6291691,43.2333148 22.0312533,41.0954364 17.4333375,38.9576689 C16.6742913,34.59653 15.9151321,30.2352802 15.1559729,25.8741413 C18.93108,21.8808107 22.7061871,17.8873691 26.4810681,13.8941494 C27.1009445,13.2383707 27.7207078,12.5827029 28.3404711,11.9270351 C33.0928191,14.6195643 37.8450539,17.3119827 42.5971758,20.004401 C43.6810267,20.6184866 44.7647647,21.2324614 45.8486156,21.846547 C45.5418995,26.565847 45.2351833,31.2850362 44.9284672,36.0044471 M46.7192463,21.0591468 C41.8360946,18.2925459 36.952943,15.525834 32.0699043,12.7592331 C30.8861134,12.0884848 29.7022094,11.4178474 28.5185316,10.7472101 C28.3045199,10.6260119 28.0058306,10.6512938 27.8334229,10.8338119 C23.9910485,14.8984421 20.1486741,18.9629615 16.3062998,23.0275917 C15.6421061,23.7301642 14.9780255,24.4327367 14.3138319,25.1353092 C14.1102212,25.3506494 13.9540933,25.526847 14.0123162,25.8613895 C14.0620601,26.1465878 14.1115779,26.4315643 14.1612087,26.7166517 L15.8285326,36.2948571 L16.3563828,39.3281384 C16.340216,39.4500019 16.3678013,39.573196 16.4542878,39.6743239 C16.5302602,39.7971854 16.6511152,39.8622753 16.784067,39.8785756 C21.2382909,41.9495898 25.6927409,44.020715 30.1469648,46.0918401 C34.8139568,48.2617645 39.4809488,50.431689 44.1480538,52.6018351 C44.1522368,52.6037202 44.1564198,52.6057161 44.1604898,52.6076012 C44.5581015,52.7924478 44.9826202,52.5686803 45.0109968,52.1289072 C45.3244962,47.3067051 45.6378825,42.4843921 45.9512689,37.66219 C46.2980062,32.3264757 46.6448566,26.9906506 46.991594,21.6548254 L46.9991686,21.5378409 C47.0116046,21.3472282 46.8829488,21.1519583 46.7192463,21.0591468" id="Fill-8" fill="#FFFFFF"></path>
                </g>
            </g>
        </g>
    </g>
</svg>