<?xml version="1.0" encoding="UTF-8"?>
<svg width="35px" height="113px" viewBox="0 0 35 113" version="1.1" xmlns="http://www.w3.org/2000/svg" xmlns:xlink="http://www.w3.org/1999/xlink">
    <!-- Generator: Sketch 51.2 (57519) - http://www.bohemiancoding.com/sketch -->
    <title>2018</title>
    <desc>Created with Sketch.</desc>
    <defs></defs>
    <g id="RDC18" stroke="none" stroke-width="1" fill="none" fill-rule="evenodd">
        <g id="#1-Home-v.4.1" transform="translate(-139.000000, -109.000000)" fill="#00E4FF">
            <g id="Header">
                <path d="M126.45,182 L101.35,182 L101.35,176.45 C108.483369,171.149973 113.208322,167.375011 115.525,165.125 C117.841678,162.874989 119,160.766677 119,158.8 C119,157.433326 118.466672,156.36667 117.4,155.6 C116.333328,154.833329 115.066674,154.45 113.6,154.45 C110.099982,154.45 107.116679,155.73332 104.65,158.3 L100.6,153.6 C102.166674,151.799991 104.091655,150.441671 106.375,149.525 C108.658345,148.608329 111.016655,148.15 113.45,148.15 C117.116685,148.15 120.158321,149.116657 122.575,151.05 C124.991679,152.983343 126.2,155.566651 126.2,158.8 C126.2,161.533347 125.125011,164.20832 122.975,166.825 C120.824989,169.44168 117.450023,172.41665 112.85,175.75 L126.45,175.75 L126.45,182 Z M153.5,180.05 C151.366656,181.750009 148.783348,182.6 145.75,182.6 C142.716652,182.6 140.125011,181.741675 137.975,180.025 C135.824989,178.308325 134.283338,176.183346 133.35,173.65 C132.416662,171.116654 131.95,168.350015 131.95,165.35 C131.95,162.349985 132.416662,159.583346 133.35,157.05 C134.283338,154.516654 135.824989,152.400009 137.975,150.7 C140.125011,148.999992 142.716652,148.15 145.75,148.15 C148.783348,148.15 151.366656,148.999992 153.5,150.7 C155.633344,152.400009 157.174995,154.516654 158.125,157.05 C159.075005,159.583346 159.55,162.349985 159.55,165.35 C159.55,168.350015 159.075005,171.116654 158.125,173.65 C157.174995,176.183346 155.633344,178.316658 153.5,180.05 Z M140.75,173.3 C141.816672,175.30001 143.483322,176.3 145.75,176.3 C148.016678,176.3 149.674995,175.30001 150.725,173.3 C151.775005,171.29999 152.3,168.650016 152.3,165.35 C152.3,162.049983 151.775005,159.408343 150.725,157.425 C149.674995,155.441657 148.016678,154.45 145.75,154.45 C143.483322,154.45 141.816672,155.441657 140.75,157.425 C139.683328,159.408343 139.15,162.049983 139.15,165.35 C139.15,168.650016 139.683328,171.29999 140.75,173.3 Z M179.75,182 L172.65,182 L172.65,157.8 L167.1,163.45 L163.05,159.2 L173.55,148.65 L179.75,148.65 L179.75,182 Z M199.45,182.6 C195.683314,182.6 192.508346,181.800008 189.925,180.2 C187.341654,178.599992 186.05,176.316682 186.05,173.35 C186.05,171.416657 186.71666,169.691674 188.05,168.175 C189.38334,166.658326 191.099989,165.533337 193.2,164.8 C188.799978,163.266659 186.6,160.650018 186.6,156.95 C186.6,154.049985 187.874987,151.858341 190.425,150.375 C192.975013,148.891659 195.983316,148.15 199.45,148.15 C201.650011,148.15 203.683324,148.433331 205.55,149 C207.416676,149.566669 209.008327,150.54166 210.325,151.925 C211.641673,153.30834 212.3,154.983324 212.3,156.95 C212.3,160.616685 210.083356,163.233326 205.65,164.8 C207.750011,165.533337 209.474993,166.658326 210.825,168.175 C212.175007,169.691674 212.85,171.416657 212.85,173.35 C212.85,176.283348 211.550013,178.558325 208.95,180.175 C206.349987,181.791675 203.183352,182.6 199.45,182.6 Z M199.45,162 C200.816674,161.799999 202.091661,161.36667 203.275,160.7 C204.458339,160.03333 205.05,159.150005 205.05,158.05 C205.05,156.883328 204.533338,155.958337 203.5,155.275 C202.466662,154.591663 201.116675,154.25 199.45,154.25 C197.783325,154.25 196.425005,154.591663 195.375,155.275 C194.324995,155.958337 193.8,156.883328 193.8,158.05 C193.8,159.150005 194.399994,160.03333 195.6,160.7 C196.800006,161.36667 198.083326,161.799999 199.45,162 Z M199.45,176.5 C201.183342,176.5 202.649994,176.125004 203.85,175.375 C205.050006,174.624996 205.65,173.650006 205.65,172.45 C205.65,171.21666 204.975007,170.21667 203.625,169.45 C202.274993,168.68333 200.883341,168.200001 199.45,168 C198.01666,168.200001 196.625007,168.68333 195.275,169.45 C193.924993,170.21667 193.25,171.21666 193.25,172.45 C193.25,173.650006 193.841661,174.624996 195.025,175.375 C196.208339,176.125004 197.683324,176.5 199.45,176.5 Z" id="2018" transform="translate(156.725000, 165.375000) rotate(-90.000000) translate(-156.725000, -165.375000) "></path>
            </g>
        </g>
    </g>
</svg>