<?xml version="1.0" encoding="UTF-8"?>
<svg width="48px" height="48px" viewBox="0 0 48 48" version="1.1" xmlns="http://www.w3.org/2000/svg" xmlns:xlink="http://www.w3.org/1999/xlink">
    <!-- Generator: Sketch 51.2 (57519) - http://www.bohemiancoding.com/sketch -->
    <title>Shape</title>
    <desc>Created with Sketch.</desc>
    <defs></defs>
    <g id="RDC18" stroke="none" stroke-width="1" fill="none" fill-rule="evenodd">
        <g id="#1-Home-v.4.1" transform="translate(-243.000000, -909.000000)" fill="#FF9E00" fill-rule="nonzero">
            <g id="About" transform="translate(138.000000, 909.000000)">
                <path d="M136.2195,24 C136.2195,27.981 132.981,31.2195 129,31.2195 C125.019,31.2195 121.7805,27.981 121.7805,24 C121.7805,20.019 125.019,16.7805 129,16.7805 C132.981,16.7805 136.2195,20.019 136.2195,24 M129,5.32907052e-15 C115.767,5.32907052e-15 105,10.767 105,24 C105,37.233 115.767,48 129,48 C133.848,48 138.5235,46.557 142.5195,43.8255 L142.5885,43.7775 L139.3545,40.0185 L139.3005,40.0545 C136.224,42.033 132.6615,43.08 129,43.08 C118.479,43.08 109.92,34.521 109.92,24 C109.92,13.479 118.479,4.92 129,4.92 C139.521,4.92 148.08,13.479 148.08,24 C148.08,25.3635 147.9285,26.7435 147.63,28.101 C147.027,30.5775 145.293,31.3365 143.991,31.236 C142.6815,31.1295 141.15,30.1965 141.1395,27.9135 L141.1395,26.1735 L141.1395,24 C141.1395,17.3055 135.6945,11.8605 129,11.8605 C122.3055,11.8605 116.8605,17.3055 116.8605,24 C116.8605,30.6945 122.3055,36.1395 129,36.1395 C132.252,36.1395 135.3015,34.8675 137.601,32.556 C138.9375,34.6365 141.117,35.9415 143.5965,36.1395 C143.8095,36.1575 144.027,36.1665 144.243,36.1665 C145.9875,36.1665 147.7185,35.583 149.1135,34.5225 C150.552,33.4305 151.626,31.851 152.22,29.9535 C152.3145,29.6475 152.4885,28.9455 152.49,28.941 L152.4945,28.9155 C152.844,27.393 153,25.875 153,24 C153,10.767 142.233,0 129,0" id="Shape"></path>
            </g>
        </g>
    </g>
</svg>