<?xml version="1.0" encoding="UTF-8"?>
<svg width="30px" height="30px" viewBox="0 0 30 30" version="1.1" xmlns="http://www.w3.org/2000/svg" xmlns:xlink="http://www.w3.org/1999/xlink">
    <!-- Generator: Sketch 51.2 (57519) - http://www.bohemiancoding.com/sketch -->
    <title>fb</title>
    <desc>Created with Sketch.</desc>
    <defs></defs>
    <g id="RDC18" stroke="none" stroke-width="1" fill="none" fill-rule="evenodd">
        <g id="#1-Home-v.4.1" transform="translate(-258.000000, -5338.000000)" fill="#f219bf" fill-rule="nonzero">
            <g id="Footer" transform="translate(0.000000, 5209.000000)">
                <g id="left" transform="translate(138.000000, 60.000000)">
                    <g id="Stacked-Group" transform="translate(0.000000, 69.000000)">
                        <path d="M135,0 C126.729034,0 120,6.72903408 120,15 C120,23.2703617 126.729034,30 135,30 C143.270362,30 150,23.2703617 150,15 C150,6.72903408 143.27157,0 135,0 Z M138.730363,15.5280754 L136.289978,15.5280754 C136.289978,19.427012 136.289978,24.2262145 136.289978,24.2262145 L132.67381,24.2262145 C132.67381,24.2262145 132.67381,19.4735358 132.67381,15.5280754 L130.954846,15.5280754 L130.954846,12.453879 L132.67381,12.453879 L132.67381,10.4654395 C132.67381,9.04132764 133.35052,6.81603964 136.32321,6.81603964 L139.00286,6.82631113 L139.00286,9.81048095 C139.00286,9.81048095 137.374527,9.81048095 137.057923,9.81048095 C136.74132,9.81048095 136.291187,9.96878273 136.291187,10.6479094 L136.291187,12.4544832 L139.046363,12.4544832 L138.730363,15.5280754 Z" id="fb"></path>
                    </g>
                </g>
            </g>
        </g>
    </g>
</svg>