<?xml version="1.0" encoding="UTF-8"?>
<svg width="30px" height="30px" viewBox="0 0 30 30" version="1.1" xmlns="http://www.w3.org/2000/svg" xmlns:xlink="http://www.w3.org/1999/xlink">
    <!-- Generator: Sketch 51.2 (57519) - http://www.bohemiancoding.com/sketch -->
    <title>ok</title>
    <desc>Created with Sketch.</desc>
    <defs></defs>
    <g id="RDC18" stroke="none" stroke-width="1" fill="none" fill-rule="evenodd">
        <g id="#1-Home-v.4.1" transform="translate(-198.000000, -5338.000000)" fill="#FFFFFF" fill-rule="nonzero">
            <g id="Footer" transform="translate(0.000000, 5209.000000)">
                <g id="left" transform="translate(138.000000, 60.000000)">
                    <g id="Stacked-Group" transform="translate(0.000000, 69.000000)">
                        <path d="M75,0 C83.2842967,0 90,6.71601023 90,15 C90,23.2839898 83.2842967,30 75,30 C66.7157033,30 60,23.2839898 60,15 C60,6.71601023 66.7157033,0 75,0 Z M75.0141176,12.4318159 C73.5771867,12.4370332 72.4235294,11.3020972 72.4127877,9.87191816 C72.4017391,8.4230179 73.5557033,7.25923274 75.0006138,7.26076726 C76.433555,7.26199488 77.5767775,8.40460358 77.5819949,9.84061381 C77.5872123,11.2760102 76.446445,12.4265985 75.0141176,12.4318159 Z M75.0214834,4.56153453 C72.1058824,4.55355499 69.7368798,6.90997442 69.7206138,9.83324808 C69.7034271,12.7249105 72.071202,15.1184655 74.9582609,15.1282864 C77.8750895,15.1381074 80.2585166,12.7991816 80.2732481,9.91335038 C80.2882864,6.95938619 77.9432225,4.56951407 75.0214834,4.56153453 Z M80.9392327,17.2041944 C81.3606138,16.7711509 81.3646036,16.2273146 81.0224041,15.6696675 C80.7234783,15.181688 80.2029668,14.9763683 79.6456266,15.12 C79.3586701,15.1933504 79.1109974,15.3388235 78.8795908,15.515601 C76.5421995,17.0878772 73.3436317,17.0439898 71.0154476,15.4440921 C70.9012788,15.3655243 70.7821995,15.2912532 70.6569821,15.2326343 C70.0109463,14.9278772 69.3897698,15.0696675 69.019335,15.6 C68.5869054,16.219335 68.6418414,16.8211765 69.1890537,17.3462916 C69.3302302,17.4825575 69.4901279,17.5997954 69.645422,17.7213299 C70.8948338,18.6982097 72.3541688,19.0965729 73.9724808,19.2656777 C73.8580051,19.3884399 73.7849616,19.4722251 73.706087,19.5510997 C72.5195908,20.7412788 71.3334015,21.9323785 70.1435294,23.1197954 C69.8973913,23.3647059 69.7212276,23.6390793 69.7034271,23.9969309 C69.6782609,24.5275703 70.0066496,25.0551407 70.5231714,25.3049616 C71.0093095,25.5412788 71.5077238,25.4663939 71.9266496,25.0532992 C72.859335,24.1335038 73.7868031,23.208798 74.6992327,22.2690537 C74.9278772,22.0339642 75.051867,21.9824041 75.311202,22.2530946 C76.1993862,23.1830179 77.1237852,24.0794885 78.0309974,24.9922251 C78.2676215,25.2306905 78.5343223,25.4004092 78.8762148,25.4240409 C79.4160614,25.4611765 79.9663427,25.1162148 80.2115601,24.5914066 C80.4362148,24.1117136 80.351202,23.5997954 79.9430179,23.1867008 C78.7451662,21.9750384 77.5374936,20.77289 76.3356522,19.5646036 C76.2521739,19.4811253 76.1892583,19.4096164 76.0551407,19.2641432 C76.9408696,19.157954 77.8354987,18.9986701 78.651867,18.6822506 C79.5154987,18.3474169 80.2931969,17.8674169 80.9392327,17.2041944 Z" id="ok"></path>
                    </g>
                </g>
            </g>
        </g>
    </g>
</svg>