<?xml version="1.0" encoding="UTF-8"?>
<svg width="30px" height="30px" viewBox="0 0 30 30" version="1.1" xmlns="http://www.w3.org/2000/svg" xmlns:xlink="http://www.w3.org/1999/xlink">
    <!-- Generator: Sketch 51.2 (57519) - http://www.bohemiancoding.com/sketch -->
    <title>telega</title>
    <desc>Created with Sketch.</desc>
    <defs></defs>
    <g id="RDC18" stroke="none" stroke-width="1" fill="none" fill-rule="evenodd">
        <g id="#1-Home-v.4.1" transform="translate(-438.000000, -5338.000000)" fill="#f219bf" fill-rule="nonzero">
            <g id="Footer" transform="translate(0.000000, 5209.000000)">
                <g id="left" transform="translate(138.000000, 60.000000)">
                    <g id="Stacked-Group" transform="translate(0.000000, 69.000000)">
                        <path d="M315,30 C306.715729,30 300,23.2842712 300,15 C300,6.71572875 306.715729,0 315,0 C323.284271,0 330,6.71572875 330,15 C330,23.2842712 323.284271,30 315,30 Z M321.705233,7.59313953 L305.715698,13.7613953 C305.321512,13.9134884 305.324535,14.4723256 305.720349,14.6201163 L309.616279,16.0744186 L311.124419,20.924186 C311.221047,21.2347674 311.601047,21.3493023 311.85314,21.1437209 L314.024884,19.3732558 C314.252558,19.1876744 314.576512,19.1786047 314.814186,19.3511628 L318.731512,22.1952326 C319.001163,22.3910465 319.38314,22.2433721 319.45093,21.917093 L322.320116,8.11488372 C322.394186,7.75895349 322.044535,7.4622093 321.705233,7.59313953 Z M318.656163,10.8210465 L312.371977,16.6623256 C312.151163,16.8675581 312.008488,17.1431395 311.96814,17.4418605 L311.754302,19.0280233 C311.725814,19.2396512 311.428023,19.2609302 311.369651,19.0555814 L310.546395,16.1631395 C310.452442,15.8330233 310.589419,15.4805814 310.881628,15.3005814 L318.496047,10.6105814 C318.632674,10.5265116 318.773721,10.7117442 318.656163,10.8210465 Z" id="telega"></path>
                    </g>
                </g>
            </g>
        </g>
    </g>
</svg>