<?xml version="1.0" encoding="UTF-8"?>
<svg width="30px" height="30px" viewBox="0 0 30 30" version="1.1" xmlns="http://www.w3.org/2000/svg" xmlns:xlink="http://www.w3.org/1999/xlink">
    <!-- Generator: Sketch 51.2 (57519) - http://www.bohemiancoding.com/sketch -->
    <title>tw</title>
    <desc>Created with Sketch.</desc>
    <defs></defs>
    <g id="RDC18" stroke="none" stroke-width="1" fill="none" fill-rule="evenodd">
        <g id="#1-Home-v.4.1" transform="translate(-318.000000, -5338.000000)" fill="#f219bf" fill-rule="nonzero">
            <g id="Footer" transform="translate(0.000000, 5209.000000)">
                <g id="left" transform="translate(138.000000, 60.000000)">
                    <g id="Stacked-Group" transform="translate(0.000000, 69.000000)">
                        <path d="M195,0 C186.729034,0 180,6.72903408 180,15 C180,23.2703617 186.729034,30 195,30 C203.270362,30 210,23.2703617 210,15 C210,6.72903408 203.27157,0 195,0 Z M201.691573,11.5669057 C201.69822,11.7155402 201.701845,11.8653831 201.701845,12.015226 C201.701845,16.57758 198.230081,21.8365826 191.878071,21.8365826 C189.928301,21.8365826 188.113268,21.266817 186.585837,20.2867961 C186.855917,20.318819 187.130831,20.3351325 187.409369,20.3351325 C189.027431,20.3351325 190.515588,19.7828889 191.697414,18.8572464 C190.186901,18.829453 188.911424,17.8313059 188.472166,16.4591557 C188.68243,16.4990333 188.899339,16.5213889 189.121083,16.5213889 C189.435874,16.5213889 189.741602,16.4803029 190.031016,16.401152 C188.451623,16.0845485 187.261943,14.6894385 187.261943,13.0157899 C187.261943,13.001289 187.261943,12.9861838 187.262547,12.9722871 C187.727785,13.2302828 188.26009,13.3861677 188.825626,13.4036897 C187.899984,12.7855877 187.290341,11.7282285 187.290341,10.5306936 C187.290341,9.89748651 187.460122,9.30415693 187.757391,8.79420769 C189.459438,10.8835495 192.00435,12.2575123 194.873117,12.4025215 C194.813905,12.1493595 194.784299,11.8865303 194.784299,11.6152421 C194.784299,9.70897446 196.329856,8.16281318 198.236123,8.16281318 C199.229437,8.16281318 200.125473,8.58213164 200.756264,9.25279948 C201.543543,9.09812294 202.280673,8.81172964 202.949529,8.41476678 C202.68972,9.22138081 202.144123,9.89748651 201.429348,10.3252638 C202.128414,10.2418835 202.795456,10.0569967 203.41235,9.7820833 C202.951946,10.4732941 202.366471,11.0817288 201.691573,11.5669057 Z" id="tw"></path>
                    </g>
                </g>
            </g>
        </g>
    </g>
</svg>