<?xml version="1.0" encoding="UTF-8"?>
<svg width="30px" height="30px" viewBox="0 0 30 30" version="1.1" xmlns="http://www.w3.org/2000/svg" xmlns:xlink="http://www.w3.org/1999/xlink">
    <!-- Generator: Sketch 51.2 (57519) - http://www.bohemiancoding.com/sketch -->
    <title>you</title>
    <desc>Created with Sketch.</desc>
    <defs></defs>
    <g id="RDC18" stroke="none" stroke-width="1" fill="none" fill-rule="evenodd">
        <g id="#1-Home-v.4.1" transform="translate(-378.000000, -5338.000000)" fill="#f219bf" fill-rule="nonzero">
            <g id="Footer" transform="translate(0.000000, 5209.000000)">
                <g id="left" transform="translate(138.000000, 60.000000)">
                    <g id="Stacked-Group" transform="translate(0.000000, 69.000000)">
                        <path d="M255,0 C263.28399,0 270,6.71570332 270,15 C270,23.2842967 263.28399,30 255,30 C246.71601,30 240,23.2842967 240,15 C240,6.71570332 246.71601,0 255,0 Z M252.266701,18.2875703 C252.266701,15.9449616 252.266701,13.6259847 252.266701,11.2830691 C254.511407,12.4545269 256.741995,13.6176982 259.000512,14.7962148 C256.748747,15.9639898 254.517545,17.1204092 252.266701,18.2875703 Z M265.220256,20.0068542 C265.589463,18.4026598 265.590384,16.6514578 265.590384,15 C265.590384,13.3485422 265.593453,11.5973402 265.224246,9.99314578 C264.965217,8.86649616 264.043887,8.03570332 262.934425,7.91171355 C260.308542,7.61831202 257.650128,7.61677749 255.003683,7.61831202 C252.356624,7.61677749 249.69821,7.61831202 247.071407,7.91171355 C245.962558,8.03570332 245.041841,8.86680307 244.782813,9.99314578 C244.413606,11.5970332 244.409309,13.3485422 244.409309,15 C244.409309,16.6514578 244.409309,18.4023529 244.778517,20.0068542 C245.037545,21.1331969 245.958261,21.9639898 247.06711,22.0876726 C249.693913,22.3813811 252.352327,22.3829156 254.999386,22.3813811 C257.646445,22.3829156 260.304246,22.3813811 262.930435,22.0876726 C264.039284,21.9639898 264.960614,21.1331969 265.220256,20.0068542 Z" id="you"></path>
                    </g>
                </g>
            </g>
        </g>
    </g>
</svg>