<?xml version="1.0" encoding="UTF-8"?>
<svg width="50px" height="50px" viewBox="0 0 50 50" version="1.1" xmlns="http://www.w3.org/2000/svg" xmlns:xlink="http://www.w3.org/1999/xlink">
    <!-- Generator: Sketch 51.2 (57519) - http://www.bohemiancoding.com/sketch -->
    <title>fb</title>
    <desc>Created with Sketch.</desc>
    <defs></defs>
    <g id="RDC18" stroke="none" stroke-width="1" fill="none" fill-rule="evenodd">
        <g id="modal" transform="translate(-735.000000, -487.000000)" fill="#F219BF" fill-rule="nonzero">
            <g id="Group-2" transform="translate(400.000000, 275.000000)">
                <g id="Stacked-Group" transform="translate(175.000000, 212.000000)">
                    <path d="M185,0 C171.215057,0 160,11.2150568 160,25 C160,38.7839362 171.215057,50 185,50 C198.783936,50 210,38.7839362 210,25 C210,11.2150568 198.78595,0 185,0 Z M191.217272,25.8801257 L187.149964,25.8801257 C187.149964,32.3783533 187.149964,40.3770241 187.149964,40.3770241 L181.123016,40.3770241 C181.123016,40.3770241 181.123016,32.455893 181.123016,25.8801257 L178.258076,25.8801257 L178.258076,20.756465 L181.123016,20.756465 L181.123016,17.4423991 C181.123016,15.0688794 182.250866,11.3600661 187.205349,11.3600661 L191.671433,11.3771852 L191.671433,16.3508016 C191.671433,16.3508016 188.957545,16.3508016 188.429872,16.3508016 C187.902199,16.3508016 187.151978,16.6146379 187.151978,17.7465157 L187.151978,20.757472 L191.743938,20.757472 L191.217272,25.8801257 Z" id="fb"></path>
                </g>
            </g>
        </g>
    </g>
</svg>