<?xml version="1.0" encoding="UTF-8"?>
<svg width="50px" height="50px" viewBox="0 0 50 50" version="1.1" xmlns="http://www.w3.org/2000/svg" xmlns:xlink="http://www.w3.org/1999/xlink">
    <!-- Generator: Sketch 51.2 (57519) - http://www.bohemiancoding.com/sketch -->
    <title>ok</title>
    <desc>Created with Sketch.</desc>
    <defs></defs>
    <g id="RDC18" stroke="none" stroke-width="1" fill="none" fill-rule="evenodd">
        <g id="modal" transform="translate(-655.000000, -487.000000)" fill="#F219BF" fill-rule="nonzero">
            <g id="Group-2" transform="translate(400.000000, 275.000000)">
                <g id="Stacked-Group" transform="translate(175.000000, 212.000000)">
                    <path d="M105,0 C118.807161,0 130,11.1933504 130,25 C130,38.8066496 118.807161,50 105,50 C91.1928389,50 80,38.8066496 80,25 C80,11.1933504 91.1928389,0 105,0 Z M105.023529,20.7196931 C102.628645,20.7283887 100.705882,18.8368286 100.68798,16.4531969 C100.669565,14.0383632 102.592839,12.0987212 105.001023,12.1012788 C107.389258,12.1033248 109.294629,14.0076726 109.303325,16.401023 C109.31202,18.7933504 107.410742,20.7109974 105.023529,20.7196931 Z M105.035806,7.60255754 C100.176471,7.58925831 96.228133,11.516624 96.201023,16.3887468 C96.1723785,21.2081841 100.11867,25.1974425 104.930435,25.2138107 C109.791816,25.230179 113.764194,21.3319693 113.788747,16.5222506 C113.813811,11.598977 109.905371,7.61585678 105.035806,7.60255754 Z M114.898721,28.6736573 C115.601023,27.9519182 115.607673,27.0455243 115.03734,26.1161125 C114.53913,25.3028133 113.671611,24.9606138 112.742711,25.2 C112.26445,25.3222506 111.851662,25.5647059 111.465985,25.859335 C107.570332,28.4797954 102.239386,28.4066496 98.3590793,25.7401535 C98.168798,25.6092072 97.9703325,25.485422 97.7616368,25.3877238 C96.6849105,24.8797954 95.6496164,25.1161125 95.0322251,26 C94.311509,27.0322251 94.4030691,28.0352941 95.3150895,28.9104859 C95.5503836,29.1375959 95.8168798,29.3329923 96.0757033,29.5355499 C98.1580563,31.1636829 100.590281,31.8276215 103.287468,32.1094629 C103.096675,32.3140665 102.974936,32.4537084 102.843478,32.5851662 C100.865985,34.568798 98.8890026,36.5539642 96.9058824,38.5329923 C96.4956522,38.9411765 96.202046,39.3984655 96.1723785,39.9948849 C96.1304348,40.8792839 96.6777494,41.7585678 97.5386189,42.1749361 C98.3488491,42.568798 99.1795396,42.4439898 99.8777494,41.7554987 C101.432225,40.2225064 102.978005,38.6813299 104.498721,37.1150895 C104.879795,36.7232737 105.086445,36.6373402 105.51867,37.088491 C106.998977,38.6383632 108.539642,40.1324808 110.051662,41.6537084 C110.446036,42.0511509 110.890537,42.3340153 111.460358,42.3734015 C112.360102,42.4352941 113.277238,41.8603581 113.685934,40.9856777 C114.060358,40.1861893 113.91867,39.3329923 113.238363,38.6445013 C111.241944,36.6250639 109.229156,34.6214834 107.226087,32.6076726 C107.086957,32.4685422 106.982097,32.3493606 106.758568,32.1069054 C108.234783,31.9299233 109.725831,31.6644501 111.086445,31.1370844 C112.525831,30.5790281 113.821995,29.7790281 114.898721,28.6736573 Z" id="ok"></path>
                </g>
            </g>
        </g>
    </g>
</svg>