<?xml version="1.0" encoding="UTF-8"?>
<svg width="50px" height="50px" viewBox="0 0 50 50" version="1.1" xmlns="http://www.w3.org/2000/svg" xmlns:xlink="http://www.w3.org/1999/xlink">
    <!-- Generator: Sketch 51.2 (57519) - http://www.bohemiancoding.com/sketch -->
    <title>tw</title>
    <desc>Created with Sketch.</desc>
    <defs></defs>
    <g id="RDC18" stroke="none" stroke-width="1" fill="none" fill-rule="evenodd">
        <g id="modal" transform="translate(-815.000000, -487.000000)" fill="#F219BF" fill-rule="nonzero">
            <g id="Group-2" transform="translate(400.000000, 275.000000)">
                <g id="Stacked-Group" transform="translate(175.000000, 212.000000)">
                    <path d="M265,0 C251.215057,0 240,11.2150568 240,25 C240,38.7839362 251.215057,50 265,50 C278.783936,50 290,38.7839362 290,25 C290,11.2150568 278.78595,0 265,0 Z M276.152622,19.2781761 C276.163699,19.5259003 276.169741,19.7756384 276.169741,20.0253766 C276.169741,27.6292999 270.383469,36.3943044 259.796786,36.3943044 C256.547168,36.3943044 253.522114,35.4446951 250.976396,33.8113268 C251.426529,33.8646983 251.884718,33.8918875 252.348949,33.8918875 C255.045718,33.8918875 257.525981,32.9714815 259.49569,31.4287441 C256.978168,31.3824217 254.852373,29.7188431 254.120277,27.4319262 C254.470716,27.4983888 254.832232,27.5356481 255.201805,27.5356481 C255.726456,27.5356481 256.236003,27.4671715 256.71836,27.3352534 C254.086039,26.8075808 252.103239,24.4823975 252.103239,21.6929832 C252.103239,21.668815 252.103239,21.6436397 252.104246,21.6204785 C252.879642,22.0504713 253.766817,22.3102795 254.709377,22.3394828 C253.16664,21.3093128 252.150568,19.5470475 252.150568,17.551156 C252.150568,16.4958108 252.433537,15.5069282 252.928986,14.6570128 C255.765729,18.1392492 260.00725,20.4291871 264.788528,20.6708692 C264.689841,20.2489326 264.640498,19.8108838 264.640498,19.3587368 C264.640498,16.1816241 267.216426,13.6046886 270.393539,13.6046886 C272.049061,13.6046886 273.542455,14.3035527 274.593773,15.4213325 C275.905905,15.1635382 277.134456,14.6862161 278.249215,14.0246113 C277.816201,15.368968 276.906872,16.4958108 275.71558,17.2087731 C276.88069,17.0698058 277.992427,16.7616612 279.020583,16.3034722 C278.253243,17.4554902 277.277451,18.4695481 276.152622,19.2781761 Z" id="tw"></path>
                </g>
            </g>
        </g>
    </g>
</svg>