<?xml version="1.0" encoding="UTF-8"?>
<svg width="50px" height="50px" viewBox="0 0 50 50" version="1.1" xmlns="http://www.w3.org/2000/svg" xmlns:xlink="http://www.w3.org/1999/xlink">
    <!-- Generator: Sketch 51.2 (57519) - http://www.bohemiancoding.com/sketch -->
    <title>vk</title>
    <desc>Created with Sketch.</desc>
    <defs></defs>
    <g id="RDC18" stroke="none" stroke-width="1" fill="none" fill-rule="evenodd">
        <g id="modal" transform="translate(-575.000000, -487.000000)" fill="#F219BF" fill-rule="nonzero">
            <g id="Group-2" transform="translate(400.000000, 275.000000)">
                <g id="Stacked-Group" transform="translate(175.000000, 212.000000)">
                    <path d="M25,0 C11.1933504,0 0,11.1928389 0,25 C0,38.8071611 11.1933504,50 25,50 C38.8066496,50 50,38.8071611 50,25 C50,11.1928389 38.8066496,0 25,0 Z M37.6813299,27.7038363 C38.8465473,28.8419437 40.0792839,29.9130435 41.1253197,31.168798 C41.5887468,31.7242967 42.0255754,32.2987212 42.3580563,32.944757 C42.8327366,33.8659847 42.4040921,34.8762148 41.5795396,34.9309463 L36.4578005,34.9299233 C35.1350384,35.0393862 34.0823529,34.5058824 33.1948849,33.6015345 C32.486445,32.8808184 31.829156,32.1109974 31.1468031,31.3657289 C30.8680307,31.0598465 30.5744246,30.771867 30.2245524,30.5452685 C29.5263427,30.0910486 28.9196931,30.230179 28.5196931,30.9595908 C28.1120205,31.7017903 28.0189258,32.5242967 27.9800512,33.3503836 C27.9242967,34.5580563 27.5601023,34.8736573 26.3483376,34.9304348 C23.7590793,35.0516624 21.3023018,34.6588235 19.0189258,33.3534527 C17.0046036,32.202046 15.4455243,30.5769821 14.0869565,28.7370844 C11.4414322,25.1503836 9.41534527,21.2138107 7.59488491,17.1641944 C7.18516624,16.2521739 7.48491049,15.7641944 8.49104859,15.7452685 C10.1626598,15.7130435 11.8342711,15.7171355 13.5058824,15.743734 C14.1861893,15.7544757 14.6363171,16.143734 14.8976982,16.7856777 C15.801023,19.0081841 16.9084399,21.1227621 18.2961637,23.0838875 C18.6659847,23.6061381 19.0434783,24.1268542 19.5810742,24.4956522 C20.1744246,24.9028133 20.6265985,24.7682864 20.9063939,24.1058824 C21.085422,23.6849105 21.1626598,23.2347826 21.2015345,22.7836317 C21.3345269,21.2383632 21.3503836,19.6936061 21.1202046,18.1544757 C20.9769821,17.1913043 20.4352941,16.5693095 19.4751918,16.3872123 C18.9861893,16.2946292 19.0578005,16.113555 19.2956522,15.8342711 C19.7084399,15.3514066 20.0951407,15.0526854 20.8680307,15.0526854 L26.6547315,15.0516624 C27.5667519,15.2306905 27.7713555,15.6398977 27.8951407,16.5585678 L27.9002558,22.9892583 C27.8895141,23.344757 28.0787724,24.3984655 28.7171355,24.631202 C29.2286445,24.8 29.5662404,24.3897698 29.8721228,24.0659847 C31.2598465,22.5933504 32.2485934,20.855243 33.1340153,19.056266 C33.5248082,18.2629156 33.8618926,17.4419437 34.1892583,16.6194373 C34.4327366,16.0112532 34.8112532,15.7120205 35.4976982,15.7222506 L41.0700767,15.7289003 C41.2342711,15.7289003 41.401023,15.7304348 41.5636829,15.7585678 C42.5028133,15.9191816 42.7601023,16.3232737 42.4695652,17.2393862 C42.0122762,18.6787724 41.1237852,19.8777494 40.255243,21.0797954 C39.3242967,22.3667519 38.3314578,23.6086957 37.4097187,24.9012788 C36.5626598,26.0828645 36.6296675,26.6777494 37.6813299,27.7038363 Z" id="vk"></path>
                </g>
            </g>
        </g>
    </g>
</svg>